<svg id="Layer_1" height="512" viewBox="0 0 512 512" width="512" xmlns="http://www.w3.org/2000/svg" data-name="Layer 1"><path d="m16 118v299.82a40.156 40.156 0 0 0 40 40.18h400a40.156 40.156 0 0 0 40-40.18v-299.82z" fill="#5fa8ed"/><path d="m46 417.82v-299.82h-30v299.82a40.156 40.156 0 0 0 40 40.18h30a40.156 40.156 0 0 1 -40-40.18z" fill="#5493c6"/><path d="m456 54h-282v38.87a27 27 0 0 1 -27.09 27.13h349.09v-25.82a40.156 40.156 0 0 0 -40-40.18z" fill="#ccd3df"/><path d="m174.18 54.18v38.69a27.271 27.271 0 0 1 -27.27 27.27h-130.91v-25.96a40 40 0 0 1 40-40z" fill="#b0b5ca"/><path d="m370.11 239.5h85.33v23h-85.33z" fill="#a5e2fb"/><path d="m370.11 339.5h75.33v23h-75.33z" fill="#a5e2fb"/><path d="m370.11 289.5h55.33v23h-55.33z" fill="#a5e2fb"/><path d="m370.11 189.5h55.33v23h-55.33z" fill="#a5e2fb"/><path d="m341.11 339.5h29v23h-29z" fill="#53d8d8"/><path d="m341.11 289.5h29v23h-29z" fill="#53d8d8"/><path d="m341.11 239.5h29v23h-29z" fill="#53d8d8"/><path d="m341.11 189.5h29v23h-29z" fill="#53d8d8"/><path d="m105.13 222-11.4 135h134.78l13.3-135z" fill="#e87187"/><path d="m228.51 357.004-3.85 39.446h-134.23l3.3-39.446z" fill="#ad5e73"/><path d="m261.87 222.29 14.7 174.16-25.625-20.57v.19-.31-153.33-.4z" fill="#6d7486"/><path d="m276.57 396.45h-52.91l27.285-20.38v-.19z" fill="#4a5160"/><path d="m251 375.76v-153.33-.4l-9.952-.23-17.131 174.65 27.083-20.38z" fill="#b0b5ca"/><path d="m86 54h-30a40.156 40.156 0 0 0 -40 40.18v25.82h30v-25.82a40.156 40.156 0 0 1 40-40.18z" fill="#8e94a5"/><g fill="#284268"><path d="m341 219h84a6 6 0 0 0 6-6v-23a6 6 0 0 0 -6-6h-84a6 6 0 0 0 -6 6v23a6 6 0 0 0 6 6zm35-23h43v11h-43zm-29 0h17v11h-17z"/><path d="m341 269h114a6 6 0 0 0 6-6v-23a6 6 0 0 0 -6-6h-114a6 6 0 0 0 -6 6v23a6 6 0 0 0 6 6zm35-23h73v11h-73zm-29 0h17v11h-17z"/><path d="m341 319h84a6 6 0 0 0 6-6v-23a6 6 0 0 0 -6-6h-84a6 6 0 0 0 -6 6v23a6 6 0 0 0 6 6zm35-23h43v11h-43zm-29 0h17v11h-17z"/><path d="m341 369h104a6 6 0 0 0 6-6v-23a6 6 0 0 0 -6-6h-104a6 6 0 0 0 -6 6v23a6 6 0 0 0 6 6zm35-23h63v11h-63zm-29 0h17v11h-17z"/><path d="m89.433 402h187.134a5.65 5.65 0 0 0 5.978-6.166l-14.7-174.047a5.972 5.972 0 0 0 -5.811-5.494l-43.034-.293v-14.617a42.216 42.216 0 0 0 -42.216-42.383h-.02c-23.381.011-42.764 19.041-42.764 42.419v14.581h-29.871a5.916 5.916 0 0 0 -5.979 5.4l-14.696 174.6a5.449 5.449 0 0 0 1.562 4.313 5.78 5.78 0 0 0 4.417 1.687zm167.567-170.769 12.8 151.724-12.8-10.341zm2.589 158.769h-17.929l9.3-6.973zm-14.589-16.757-13.641 10.231 13.641-138.948zm-99-171.826c0-16.764 14-30.409 30.8-30.417h.014a30.217 30.217 0 0 1 30.186 30.419v14.581h-61zm-36.354 26.583h24.354v19.247a6 6 0 0 0 12 0v-19.247h61v19.247a6 6 0 0 0 12 0v-19.247h15.188l-12.12 123h-122.811zm-11.4 135h122.644l-2.67 27h-122.261z"/><path d="m456 48h-400a46 46 0 0 0 -46 46v324a46 46 0 0 0 46 46h400a46 46 0 0 0 46-46v-324a46 46 0 0 0 -46-46zm-434 46.182a34.2 34.2 0 0 1 34-34.182h112v32.869a21.021 21.021 0 0 1 -21.091 21.131h-124.909zm468 323.636a34.2 34.2 0 0 1 -34 34.182h-400a34.2 34.2 0 0 1 -34-34.182v-291.818h468zm0-303.818h-317.509a32.54 32.54 0 0 0 7.509-21.132v-32.868h276a34.2 34.2 0 0 1 34 34.182z"/><path d="m62.364 78.979a8.182 8.182 0 1 0 8.182 8.182 8.191 8.191 0 0 0 -8.182-8.182z"/><path d="m95.091 78.979a8.182 8.182 0 1 0 8.182 8.182 8.191 8.191 0 0 0 -8.182-8.182z"/><path d="m127.819 78.979a8.182 8.182 0 1 0 8.181 8.182 8.191 8.191 0 0 0 -8.181-8.182z"/><path d="m44 158.833a6 6 0 0 0 6-6v-4.295a6 6 0 0 0 -12 0v4.295a6 6 0 0 0 6 6z"/><path d="m44 275.833a6 6 0 0 0 6-6v-96a6 6 0 0 0 -12 0v96a6 6 0 0 0 6 6z"/></g></svg>