<svg xmlns="http://www.w3.org/2000/svg" xmlns:xlink="http://www.w3.org/1999/xlink" viewBox="0 0 483.36 442.44"><defs><linearGradient id="linear-gradient" x1="197.01" y1="421.77" x2="210.46" y2="421.77" gradientUnits="userSpaceOnUse"><stop offset="0" stop-color="#231f20"/><stop offset="1" stop-color="#231f20" stop-opacity="0"/></linearGradient><linearGradient id="linear-gradient-2" x1="231.15" y1="431" x2="244.6" y2="431" xlink:href="#linear-gradient"/><linearGradient id="linear-gradient-3" x1="196.48" y1="380.11" x2="217.64" y2="380.11" xlink:href="#linear-gradient"/><linearGradient id="linear-gradient-4" x1="216.54" y1="368.29" x2="231.59" y2="368.29" xlink:href="#linear-gradient"/><linearGradient id="linear-gradient-5" x1="231.41" y1="376.66" x2="241.57" y2="376.66" xlink:href="#linear-gradient"/><linearGradient id="linear-gradient-6" x1="239.72" y1="385.12" x2="255.07" y2="385.12" xlink:href="#linear-gradient"/><linearGradient id="linear-gradient-7" x1="247.67" y1="67.31" x2="322.11" y2="67.31" gradientUnits="userSpaceOnUse"><stop offset="0" stop-color="#d7d7d7"/><stop offset="0.07" stop-color="#dbdbdb"/><stop offset="0.64" stop-color="#f2f2f2"/><stop offset="1" stop-color="#fbfbfb"/></linearGradient><linearGradient id="linear-gradient-8" x1="317.81" y1="21.05" x2="317.81" y2="140.84" gradientUnits="userSpaceOnUse"><stop offset="0" stop-color="#ffb500"/><stop offset="0.32" stop-color="#fcb300"/><stop offset="0.55" stop-color="#f3ad02"/><stop offset="0.74" stop-color="#e4a204"/><stop offset="0.91" stop-color="#ce9407"/><stop offset="1" stop-color="#c08a09"/></linearGradient><linearGradient id="linear-gradient-9" x1="235.18" y1="8.31" x2="235.18" y2="100.22" xlink:href="#linear-gradient-8"/><linearGradient id="linear-gradient-10" x1="148.24" y1="67.31" x2="222.69" y2="67.31" xlink:href="#linear-gradient-7"/><linearGradient id="linear-gradient-11" x1="152.55" y1="21.05" x2="152.55" y2="140.84" xlink:href="#linear-gradient-8"/><linearGradient id="linear-gradient-12" x1="137.25" y1="157.65" x2="137.25" y2="114.89" gradientUnits="userSpaceOnUse"><stop offset="0" stop-color="#ffb500"/><stop offset="0.06" stop-color="#f6af01"/><stop offset="0.26" stop-color="#de9f05"/><stop offset="0.48" stop-color="#cd9307"/><stop offset="0.71" stop-color="#c38c09"/><stop offset="1" stop-color="#c08a09"/></linearGradient><linearGradient id="linear-gradient-13" x1="333.08" y1="157.65" x2="333.08" y2="114.71" xlink:href="#linear-gradient-12"/><linearGradient id="linear-gradient-14" x1="235.18" y1="191.96" x2="235.18" y2="89.74" xlink:href="#linear-gradient-12"/><linearGradient id="linear-gradient-15" x1="311.66" y1="166.97" x2="255.48" y2="103.05" gradientUnits="userSpaceOnUse"><stop offset="0.2" stop-color="#b4b4b4"/><stop offset="0.34" stop-color="#afafaf"/><stop offset="0.51" stop-color="#a0a0a0"/><stop offset="0.7" stop-color="#888"/><stop offset="0.89" stop-color="#666"/><stop offset="1" stop-color="#505050"/></linearGradient><linearGradient id="linear-gradient-16" x1="133.75" y1="199.91" x2="237.38" y2="73.03" xlink:href="#linear-gradient-15"/></defs><title>Asset 5coming soon</title><g id="Layer_2" data-name="Layer 2"><g id="Layer_1-2" data-name="Layer 1"><path d="M382.91,187.43c-1.51-.63-6.47-1.21-12.93-1.58a3.29,3.29,0,0,0,1-3.33c-.43-1.89-2.16-4-4.74-5.94,7.71-2.27,12.44-5.34,12.44-8.71,0-6.57-17.9-12-40.88-12.65,0-.24,0-.48-.07-.72-.63-3.86-5.06-6.35-9.89-5.56a12.51,12.51,0,0,0-2,.52,6.47,6.47,0,0,0-.46-1.3c-2.5-5-11.33-5.74-19.73-1.57a28.66,28.66,0,0,0-3.32,2c-3.49-5.36-8.31-8.67-13.64-8.67-6.37,0-12,4.73-15.51,12-4.08.74-7.1,3.61-7.45,6.83a19.26,19.26,0,0,0-14.85,10.32c-13.42-2.61-24.79-.88-25.95,4.14-.4,1.75.5,3.69,2.39,5.61-21.72,1.25-37.58,5.38-37.58,10.25,0,1.46,1.43,2.85,4,4.12-4,0-7.78.09-11.35.22-2-1.75-5.63-3.44-10-4.43-7-1.61-13.11-.83-13.7,1.74-.31,1.38,1,3,3.4,4.43-2.88.52-4.52,1.13-4.52,1.77,0,2.06,16.84,3.73,37.6,3.73,10.65,0,20.26-.44,27.1-1.14,2.09,2.57,7.1,4.39,12.95,4.39,5.66,0,10.53-1.71,12.74-4.15a211.72,211.72,0,0,0,21.93-1.58c1.22,3.22,5.24,5.18,9.59,4.46a9.64,9.64,0,0,0,6.7-4.21,12.65,12.65,0,0,0,2.54.26c4.9,0,9.38-2.81,12.78-7.44a111,111,0,0,0,20.54,8c20.61,5.78,35.69,3.49,33.69-5.12A13.48,13.48,0,0,0,353,189c3.52.15,7.34.24,11.18.26C377.07,189.33,385.47,188.5,382.91,187.43Z" fill="#ddf5fd" stroke="#000" stroke-miterlimit="10" stroke-width="0.13"/><path d="M374.27,162.41c-6.69-3.9-20.31-6.71-36.45-7.19,0-.24,0-.48-.07-.72-.63-3.86-5.06-6.35-9.89-5.56a12.51,12.51,0,0,0-2,.52,6.47,6.47,0,0,0-.46-1.3c-2.5-5-11.33-5.74-19.73-1.57a28.66,28.66,0,0,0-3.32,2c-3.49-5.36-8.31-8.67-13.64-8.67-6.37,0-12,4.73-15.51,12-4.08.74-7.1,3.61-7.45,6.83a19.25,19.25,0,0,0-14.87,10.32c-13.42-2.61-24.79-.88-25.95,4.14-.4,1.75.5,3.69,2.39,5.61-14.24.86-26,2.93-32.34,5.62a96.11,96.11,0,0,1,26.14-4.21,110.16,110.16,0,0,1,14.3.45c-3-1.67-4.8-3.62-4.52-5.44.55-3.62,8.89-5.36,18.64-3.89a43.49,43.49,0,0,1,9.11,2.38,7.91,7.91,0,0,0-5.54,4,14.51,14.51,0,0,1,16.3,0c-1.08-2.35-4-4.08-7.57-4.26a26.13,26.13,0,0,1,10.7-10.24c1.89-6,7.62-10.73,14.84-12.14a10.36,10.36,0,0,0-6.69,6,15.85,15.85,0,0,1,20.74,0,10.6,10.6,0,0,0-8.4-6.41c7.54.36,14,4.25,17,9.75a30.84,30.84,0,0,1,25.67,0,7.49,7.49,0,0,0-6.5,4.27,11.62,11.62,0,0,1,14.51,0,7.25,7.25,0,0,0-5.4-4.11,83.09,83.09,0,0,1,14-1.16A79.19,79.19,0,0,1,374.27,162.41Z" fill="#f2fbfd" stroke="#000" stroke-miterlimit="10" stroke-width="0.13"/><ellipse cx="206.75" cy="187.49" rx="4.85" ry="0.94" fill="#bedef7" stroke="#000" stroke-miterlimit="10" stroke-width="0.13"/><path d="M279.09,186.31c2.3,0,4.17-.67,4.17-1.5s-1.87-1.5-4.17-1.5-4.17.67-4.17,1.5S276.79,186.31,279.09,186.31Z" fill="#bedef7" stroke="#000" stroke-miterlimit="10" stroke-width="0.13"/><path d="M382.91,187.43c-1.51-.63-6.47-1.21-12.93-1.58a3.29,3.29,0,0,0,1-3.33c-.43-1.89-2.16-4-4.74-5.94,5.05-1.49,8.81-3.32,10.82-5.35a98,98,0,0,1-27.86,3.84A103,103,0,0,1,328.32,173c5.57-1.22,10.16-3.36,13-6-5.38,2.45-14,4-23.66,4-8.38,0-15.94-1.19-21.31-3.1,4.57-.3,8.41-2.46,10-5.44-2.34,1.81-6.45,3-11.12,3s-8.79-1.2-11.13-3c1.76,3.19,6,5.44,11,5.47,4.77,3.72,13.06,6.18,22.5,6.18a52.52,52.52,0,0,0,7.08-.48c.91.31,1.84.64,2.77,1,15.4,5.67,26.59,13.79,25,18.13s-15.38,3.27-30.78-2.4c-8.26-3-15.3-6.78-19.81-10.27a27.07,27.07,0,0,1-28.37,7.16,26.31,26.31,0,0,1-18.72,1.12c4.85-1.32,8.73-4.09,10.66-7.58-3.61,2.79-9.94,4.64-17.16,4.64s-13.54-1.85-17.16-4.64c2.74,4.95,9.39,8.45,17.16,8.45a24,24,0,0,0,3.87-.31,20.16,20.16,0,0,1-27.88,5.93,20.47,20.47,0,0,1-4.48-4,40,40,0,0,1-7.16.64A38.34,38.34,0,0,1,201.76,190c1.31,1.24,2,2.5,1.71,3.64-.74,3.44-9.1,4.57-18.68,2.52-.41-.08-.8-.18-1.2-.27a28.92,28.92,0,0,1-24.89-4.82c-.08,1.3,1.22,2.78,3.42,4.13-2.88.52-4.52,1.13-4.52,1.77,0,2.06,16.84,3.73,37.6,3.73,10.65,0,20.26-.44,27.1-1.14,2.09,2.57,7.1,4.39,12.95,4.39,5.66,0,10.53-1.71,12.74-4.15a211.72,211.72,0,0,0,21.93-1.58c1.22,3.22,5.24,5.18,9.59,4.46a9.64,9.64,0,0,0,6.7-4.21,12.65,12.65,0,0,0,2.54.26c4.9,0,9.38-2.81,12.78-7.44a111,111,0,0,0,20.54,8c20.61,5.78,35.69,3.49,33.69-5.12A13.48,13.48,0,0,0,353,189c3.52.15,7.34.24,11.18.26C377.07,189.33,385.47,188.5,382.91,187.43ZM235.26,203.07c-5.25,0-9.87-1.69-12.57-4.25a29.5,29.5,0,0,0,25.13,0C245.12,201.39,240.54,203.07,235.26,203.07ZM288,197.53a14.92,14.92,0,0,1-3.06-.31,8.23,8.23,0,0,1-11.39,2.43,8.11,8.11,0,0,1-2.8-3.07,10,10,0,0,0,13.67.52,10.77,10.77,0,0,1-7.15-5.06,14,14,0,0,0,10,3.82c6.09,0,11.14-3.28,12.19-7.6v.66c.07,4.77-5.09,8.62-11.46,8.62Zm69.23-10.64c-4.68-.45-8.58-2.09-10.23-4.08a25.91,25.91,0,0,0,9.49,2.64c5.18.5,9.83-.33,12.61-2-1,2.5-6,4-11.87,3.45Z" fill="#bedef7" stroke="#000" stroke-miterlimit="10" stroke-width="0.13"/><path d="M.52,70.51C2,69.88,7,69.3,13.45,68.93a3.28,3.28,0,0,1-1-3.33c.43-1.89,2.16-4,4.74-5.94C9.48,57.39,4.75,54.32,4.75,51c0-6.57,17.9-12,40.88-12.65,0-.24,0-.48.07-.72.63-3.86,5.06-6.35,9.89-5.56a12.51,12.51,0,0,1,2,.52,6.94,6.94,0,0,1,.46-1.3c2.5-5,11.33-5.74,19.73-1.57a27.84,27.84,0,0,1,3.32,2C84.59,26.31,89.41,23,94.74,23c6.37,0,12,4.73,15.51,12,4.08.74,7.1,3.61,7.45,6.83a19.26,19.26,0,0,1,14.85,10.32c13.42-2.61,24.79-.88,25.95,4.14.4,1.75-.5,3.69-2.39,5.61,21.72,1.25,37.58,5.38,37.58,10.25,0,1.46-1.43,2.85-4,4.12,4,0,7.78.09,11.35.22,2-1.75,5.63-3.44,10-4.43,7-1.61,13.11-.83,13.7,1.74.31,1.38-1,3-3.4,4.43,2.88.52,4.52,1.13,4.52,1.77,0,2.06-16.84,3.73-37.6,3.73-10.65,0-20.26-.44-27.1-1.14-2.09,2.57-7.1,4.39-12.95,4.39-5.66,0-10.53-1.71-12.74-4.15a209,209,0,0,1-21.93-1.58c-1.22,3.22-5.24,5.18-9.59,4.46a9.58,9.58,0,0,1-6.7-4.21,12,12,0,0,1-2.54.26c-4.9,0-9.38-2.81-12.78-7.44a109.57,109.57,0,0,1-20.54,8C40.78,88.1,25.7,85.81,27.7,77.2a13.55,13.55,0,0,1,2.78-5.14c-3.52.15-7.34.24-11.18.26C6.36,72.41-2,71.58.52,70.51Z" fill="#ddf5fd" stroke="#000" stroke-miterlimit="10" stroke-width="0.13"/><path d="M9.16,45.49c6.69-3.9,20.31-6.71,36.45-7.19,0-.24,0-.48.07-.72.63-3.86,5.06-6.35,9.89-5.56a12.51,12.51,0,0,1,2,.52,6.94,6.94,0,0,1,.46-1.3c2.5-5,11.33-5.74,19.73-1.57a27.84,27.84,0,0,1,3.32,2C84.57,26.31,89.39,23,94.72,23c6.37,0,12,4.73,15.51,12,4.08.74,7.1,3.61,7.45,6.83a19.29,19.29,0,0,1,14.87,10.32c13.42-2.61,24.79-.88,25.95,4.14.4,1.75-.5,3.69-2.39,5.61,14.24.86,26,2.93,32.34,5.62a96.5,96.5,0,0,0-26.14-4.21,113.83,113.83,0,0,0-14.3.45c3-1.67,4.8-3.62,4.52-5.44-.55-3.62-8.89-5.36-18.64-3.89a43.49,43.49,0,0,0-9.11,2.38,7.91,7.91,0,0,1,5.54,4,14.51,14.51,0,0,0-16.3,0c1.08-2.35,4-4.08,7.57-4.26a26.13,26.13,0,0,0-10.7-10.24c-1.89-6-7.62-10.73-14.84-12.14a10.39,10.39,0,0,1,6.69,6,15.88,15.88,0,0,0-20.74,0,10.66,10.66,0,0,1,8.4-6.41c-7.54.36-14,4.25-17,9.75a30.92,30.92,0,0,0-25.67,0,7.49,7.49,0,0,1,6.5,4.27,11.65,11.65,0,0,0-14.51,0,7.3,7.3,0,0,1,5.4-4.11,84.06,84.06,0,0,0-14-1.16A79.56,79.56,0,0,0,9.16,45.49Z" fill="#f2fbfd" stroke="#000" stroke-miterlimit="10" stroke-width="0.13"/><ellipse cx="176.68" cy="70.57" rx="4.85" ry="0.94" fill="#bedef7" stroke="#000" stroke-miterlimit="10" stroke-width="0.13"/><path d="M104.34,69.39c-2.3,0-4.17-.67-4.17-1.5s1.87-1.5,4.17-1.5,4.17.67,4.17,1.5S106.64,69.39,104.34,69.39Z" fill="#bedef7" stroke="#000" stroke-miterlimit="10" stroke-width="0.13"/><path d="M19.27,72.37c3.84,0,7.66-.11,11.18-.26a13.55,13.55,0,0,0-2.78,5.14c-2,8.61,13.08,10.9,33.69,5.12a109.57,109.57,0,0,0,20.54-8c3.4,4.63,7.88,7.44,12.78,7.44a12,12,0,0,0,2.54-.26,9.58,9.58,0,0,0,6.7,4.21c4.35.72,8.37-1.24,9.59-4.46a209,209,0,0,0,21.93,1.58c2.21,2.44,7.08,4.15,12.74,4.15,5.85,0,10.86-1.82,12.95-4.39,6.84.7,16.45,1.14,27.1,1.14,20.76,0,37.6-1.67,37.6-3.73,0-.64-1.64-1.25-4.52-1.77,2.2-1.35,3.5-2.83,3.42-4.13A28.92,28.92,0,0,1,199.84,79c-.4.09-.79.19-1.2.27-9.58,2.06-17.94.92-18.68-2.52-.24-1.14.4-2.4,1.71-3.64a37.94,37.94,0,0,1-10.91,1.53A39.15,39.15,0,0,1,163.6,74a19.75,19.75,0,0,1-4.48,4A20.15,20.15,0,0,1,131.24,72a24,24,0,0,0,3.87.31c7.77,0,14.42-3.5,17.16-8.45-3.62,2.79-9.94,4.64-17.16,4.64S121.56,66.67,118,63.88c1.93,3.49,5.81,6.26,10.66,7.58a26.31,26.31,0,0,1-18.72-1.12,27.06,27.06,0,0,1-28.37-7.16C77,66.67,70,70.45,61.71,73.45c-15.4,5.67-29.19,6.74-30.78,2.4s9.6-12.46,25-18.13c.93-.36,1.86-.69,2.77-1a49.45,49.45,0,0,0,7.08.48c9.44,0,17.73-2.46,22.5-6.18,5,0,9.24-2.28,11-5.47-2.34,1.8-6.46,3-11.13,3s-8.78-1.19-11.12-3c1.64,3,5.48,5.14,10,5.44-5.37,1.91-12.93,3.1-21.31,3.1-9.66,0-18.28-1.55-23.66-4,2.84,2.64,7.43,4.78,13,6a102.33,102.33,0,0,1-20.88,2.06A97.65,97.65,0,0,1,6.37,54.31c2,2,5.77,3.86,10.82,5.35-2.58,1.94-4.31,4.05-4.74,5.94a3.28,3.28,0,0,0,1,3.33C7,69.3,2,69.88.52,70.51-2,71.58,6.36,72.41,19.27,72.37ZM135.61,81.9a29.5,29.5,0,0,0,25.13,0c-2.7,2.56-7.32,4.25-12.57,4.25S138.31,84.47,135.61,81.9ZM95.42,80.62C89.05,80.62,83.89,76.77,84,72v-.66c1.05,4.32,6.1,7.6,12.19,7.6a14,14,0,0,0,10-3.82A10.71,10.71,0,0,1,99,80.18a10,10,0,0,0,13.67-.52,8.22,8.22,0,0,1-14.19.64,14.25,14.25,0,0,1-3.06.31ZM26.19,70c-5.84.56-10.85-1-11.87-3.45,2.78,1.67,7.43,2.5,12.61,2a25.72,25.72,0,0,0,9.49-2.64c-1.65,2-5.55,3.63-10.23,4.08Z" fill="#bedef7" stroke="#000" stroke-miterlimit="10" stroke-width="0.13"/><path d="M283.48,74.23c0-1.67,16.83-3.08,39.9-3.54a7.74,7.74,0,0,1-.72-3.25c0-4.07,3.17-7.47,7.42-8.32.62-8.17,11.54-14.94,26.1-16.79a.9.9,0,0,0,.8-1,.86.86,0,0,0-.09-.3c-7.51-15.51-7.3-31,.86-35.48,5.64-3.12,13.69-.24,21.14,6.66a.91.91,0,0,0,1.29,0l0-.05C388.38,2.23,401-2.4,412.71,1.39c12.4,4,20.09,16.31,20.1,30a.92.92,0,0,0,.89.94l.23,0c5.1-1.29,9.7-.67,12.6,2.23,4.62,4.62,3.49,13.58-2.09,22h.19c10,0,18.07,4.78,18.07,10.67a6.55,6.55,0,0,1-.13,1.25.9.9,0,0,0,.72,1,.66.66,0,0,0,.28,0c1.28-.12,2.62-.18,4-.18,8.67,0,15.71,2.43,15.71,5.43s-7,5.43-15.71,5.43a41.87,41.87,0,0,1-4.48-.23h-.16c-12.53,1.08-33,1.78-56.07,1.78-35.34,0-64.46-1.64-68.55-3.76a1.21,1.21,0,0,0-.46-.12C307.68,77.86,283.48,76.23,283.48,74.23Z" fill="#ddf5fd" stroke="#000" stroke-miterlimit="10" stroke-width="0.15"/><ellipse cx="339.12" cy="64.77" rx="10.88" ry="2.94" fill="#bedef7" stroke="#000" stroke-miterlimit="10" stroke-width="0.15"/><path d="M356.18,42.33a.9.9,0,0,0,.8-1,.86.86,0,0,0-.09-.3c-7.51-15.51-7.3-31,.86-35.48,5.64-3.12,13.69-.24,21.14,6.66a.91.91,0,0,0,1.29,0l0-.05C388.38,2.23,401-2.4,412.71,1.39c12.4,4,20.09,16.31,20.1,30a.92.92,0,0,0,.89.94l.23,0c5.1-1.29,9.7-.67,12.6,2.23,4.62,4.62,3.49,13.58-2.09,22h.19c1,0,2,0,3,.14a.92.92,0,0,1-.06,1.83,26.16,26.16,0,0,0-5.7.84.91.91,0,0,1-1.13-.64.94.94,0,0,1,.19-.85c15.82-18.27-2.77-23.15-10.22-17.34a.91.91,0,0,1-1.27-.2,1,1,0,0,1-.17-.49c-1.35-17.71-32.45-30.3-44.85-20.49a.91.91,0,0,0-.18,1.29.9.9,0,0,0,.84.36,18,18,0,0,1,14,4.22.85.85,0,0,0,.6.24h1A19.55,19.55,0,0,1,413.53,31a.92.92,0,0,1-1.15,1.42,24.5,24.5,0,0,0-24.11-1.34.91.91,0,0,1-1.27-.27.92.92,0,0,1,.27-1.28,18.75,18.75,0,0,1,7-3.46.92.92,0,0,0,.66-1.12,1,1,0,0,0-.66-.66A24.5,24.5,0,0,0,371.57,31a.91.91,0,0,1-1.3,0,.92.92,0,0,1-.14-1.11,19.4,19.4,0,0,1,9.37-7.58.92.92,0,0,0,.55-1.19A1.3,1.3,0,0,0,380,21c-8-13.21-32,.81-20.38,23.21.33.64-17.84,1.05-27.53,9.55C335.93,48.09,345,43.75,356.18,42.33Z" fill="#f2fbfd" stroke="#000" stroke-miterlimit="10" stroke-width="0.15"/><ellipse cx="398.06" cy="33.62" rx="5.94" ry="2.69" fill="#f2fbfd" stroke="#000" stroke-miterlimit="10" stroke-width="0.15"/><path d="M283.45,74.23c0,2,24.2,3.63,54.35,3.68a1.21,1.21,0,0,1,.46.12c4.09,2.12,33.21,3.76,68.55,3.76,23.07,0,43.54-.7,56.07-1.78H463a41.87,41.87,0,0,0,4.48.23c8.71,0,15.71-2.43,15.71-5.43s-7-5.43-15.71-5.43c-1.38,0-2.72.06-4,.18a.66.66,0,0,1-.28,0,.9.9,0,0,1-.72-1,6.55,6.55,0,0,0,.13-1.25,7.28,7.28,0,0,0-1.82-4.63,4.27,4.27,0,0,1,.08,1.88c-1,5.45-12.64,7.9-26,5.45-.56-.1-1.12-.21-1.66-.33a.58.58,0,0,1-.22-.08.93.93,0,0,1-.4-1.24,24.3,24.3,0,0,0,1.77-4.9.92.92,0,0,0-1.73-.59c-4.18,9-14.4,13.42-21.64,13.13A14.34,14.34,0,0,1,398.94,69a.79.79,0,0,1-.1-.34.93.93,0,0,1,.83-1,32.45,32.45,0,0,0,16.9-6.85.92.92,0,0,0-1-1.52,38.73,38.73,0,0,1-49.45-11.36.94.94,0,0,0-1.08-.29.92.92,0,0,0-.5,1.2,31.09,31.09,0,0,0,5.71,8.24.94.94,0,0,1,.17,1.08.91.91,0,0,1-1.24.39l-.14-.07a.92.92,0,0,0-1.27.28A.91.91,0,0,0,368,60a30.7,30.7,0,0,0,6,3.6l.21.13a.92.92,0,0,1,.13,1.29c-4.53,5.65-14.83,9.65-26.83,9.65-10.5,0-19.71-3-24.88-7.61h0a7.65,7.65,0,0,0,.71,3.62C300.31,71.15,283.48,72.52,283.45,74.23ZM464.36,79c1.21,0,2.45,0,3.73-.15a34.44,34.44,0,0,0,13.65-3.71c-1.33,2.28-7.08,4-14.08,4C466.52,79.12,465.42,79.07,464.36,79Zm-82.82-.88c-5.82,0-10.54-.79-10.54-1.77s4.72-1.78,10.54-1.78,10.54.79,10.54,1.78-4.72,1.79-10.54,1.79Zm-80.23-4.7c0-.62,5.27-1.13,11.77-1.13s11.77.51,11.77,1.13-5.27,1.12-11.77,1.12S301.31,74,301.31,73.4Z" fill="#bedef7" stroke="#000" stroke-miterlimit="10" stroke-width="0.15"/><path d="M200,419.27c-.89,2-4.56,6-5.92,8.4s-.65,4.3,2.53,4.89c4,.75,7.16-1.67,9.68-3.06s7.47-6.54,8-10.6a8.92,8.92,0,0,0-3.71-8.34C208.85,409.42,201.48,415.92,200,419.27Z" fill="#e59900"/><path d="M197,423.55a8.34,8.34,0,0,1,4.17.9,15.6,15.6,0,0,1,4,2.68s5.41-5.34,5.3-7.84-8.61-2.87-8.61-2.87Z" opacity="0.25" fill="url(#linear-gradient)" style="isolation:isolate"/><path d="M193.51,429.11a5.11,5.11,0,0,1,2.66-.22,8,8,0,0,1,3.08,1.72c1.86,1.56,5.65-.17,8.81-3.09,2.42-2.25,3.92-7.55,5.31-10,.6-1.08,1.27.2,1.27.2a9.93,9.93,0,0,1-.89,3.86,23.49,23.49,0,0,1-6.85,7.82c-5.27,3.75-7.68,4.06-10.72,3.73S193.51,429.11,193.51,429.11Z" fill="#774900"/><path d="M197.88,422.27a12.6,12.6,0,0,1,5.5,1.21c2.17,1.27,2.47,1.46,2.47,1.46l1.09-1.23a9.94,9.94,0,0,0-3.78-2.26,25.26,25.26,0,0,0-4.1-.91Z" fill="#774900"/><path d="M200.18,419s3.4-.12,5.28.85a14,14,0,0,1,3,2l1-1.7a10.6,10.6,0,0,0-4.91-2.42c-2.75-.42-3.47,0-3.47,0Z" fill="#774900"/><path d="M241.61,428.5c.88,2,4.56,6,5.92,8.4s.64,4.3-2.54,4.89c-4,.75-7.16-1.67-9.67-3.06s-7.48-6.54-8-10.6a9,9,0,0,1,3.71-8.34C232.77,418.65,240.14,425.15,241.61,428.5Z" fill="#e59900"/><path d="M244.6,432.78a8.35,8.35,0,0,0-4.17.9,15.6,15.6,0,0,0-4,2.68s-5.41-5.34-5.3-7.84,8.61-2.87,8.61-2.87Z" opacity="0.25" fill="url(#linear-gradient-2)" style="isolation:isolate"/><path d="M248.1,438.34a5.08,5.08,0,0,0-2.65-.22,7.93,7.93,0,0,0-3.08,1.72c-1.86,1.56-5.65-.17-8.81-3.1-2.43-2.24-3.92-7.54-5.31-10-.61-1.08-1.27.2-1.27.2a10,10,0,0,0,.88,3.86,23.53,23.53,0,0,0,6.86,7.82c5.26,3.75,7.67,4.06,10.71,3.73S248.1,438.34,248.1,438.34Z" fill="#774900"/><path d="M243.73,431.49a12.7,12.7,0,0,0-5.5,1.22c-2.17,1.27-2.47,1.46-2.47,1.46l-1.09-1.23a9.93,9.93,0,0,1,3.79-2.26,25,25,0,0,1,4.1-.91Z" fill="#774900"/><path d="M241.43,428.22s-3.39-.12-5.28.85a14.32,14.32,0,0,0-3,2l-1-1.7a10.54,10.54,0,0,1,4.91-2.42c2.74-.42,3.46,0,3.46,0Z" fill="#774900"/><polygon points="183.15 341.75 181.78 341.57 191.42 261.22 192.79 261.4 183.15 341.75" fill="#231f20"/><path d="M191.56,260.55s1.19,3.89,3,9.76c4.89,15.81,14.31,46,17.24,53.32a127,127,0,0,0,7.25,15.57s-6.44-18.85-12.64-38.18-13.58-41-13.58-41Z" fill="#040501"/><path d="M218.52,339.64c-.13-.15-13.15-16-19.18-32.46-8.09-22.08-8.47-47-8.48-47.23l1.91-.17c0,.24-.14,25.07,7.87,46.93,5.94,16.21,18.82,31.9,19,32.05Z" fill="#040501"/><polygon points="284.07 343.49 285.44 343.29 278.39 262.93 277.01 263.13 284.07 343.49" fill="#231f20"/><path d="M279.1,262.16s-1.19,3.88-3,9.75c-4.89,15.81-14.31,46-17.24,53.33a128,128,0,0,1-7.25,15.57s6.44-18.86,12.64-38.19,13.58-41,13.58-41Z" fill="#040501"/><path d="M252.14,341.25l-1.07-.89c.13-.15,13-15.84,18.95-32.05,8-21.86,7.87-46.68,7.87-46.92l1.87.19c0,2.18-.35,25.12-8.44,47.21C265.3,325.23,252.27,341.09,252.14,341.25Z" fill="#040501"/><path d="M283.38,341.66s-3.6,3.42-3.58,5.41A5.58,5.58,0,0,0,281,350.4s4,0,4.23-2.11S283.38,341.66,283.38,341.66Z" fill="#040501"/><path d="M212.73,311.86s-.07,18.21-.74,25.12.17,10.7,6.35,14.49,26,3.11,32.11-1.57,4.13-13,4.27-22.53a69.15,69.15,0,0,0-1.2-15.16Z" fill="#040501"/><path d="M282.6,352a23.74,23.74,0,0,0,2.77-.37c.4-.1-.49.94-.34,1.5.08.32.51.52,1,.12-.05.65.47.92.92.47a8.21,8.21,0,0,0,.93-2.67c.35-1.27-.08-1.46-1.67-2.25a17,17,0,0,1-8.32-9.13c-2.54-6.47-6.53-11.35-9.47-15.48s-6-8.52-6-8.52l-9.53,6.3s5.84,5.39,9.47,8.69c2,1.81,7.16,8.78,11.32,13.4s3.75,4.46,4.37,6.13C278.84,352.29,281.18,352.3,282.6,352Z" fill="#d69270"/><path d="M233,297.59a12,12,0,0,0,5.83-1.63,3.26,3.26,0,0,1-.47-1.58c0-2.89,0-6.94,0-6.94l-10.59-.54c.4.73.09,4.31,0,6.82a3.52,3.52,0,0,1-.45,1.38A6.85,6.85,0,0,0,233,297.59Z" fill="#c17853"/><path d="M222,301s4.25,5.94,11,5.94S244.2,301,244.2,301s-4-2.53-5.37-5a12,12,0,0,1-5.83,1.63,6.85,6.85,0,0,1-5.68-2.49C226,297.66,222,301,222,301Z" fill="#d69270"/><path d="M233.44,293.93c-1.62,0-2.79-.89-4.31-2.29a8.64,8.64,0,0,1-3.22-5.67l-.5-9.35a6.78,6.78,0,0,1,6.75-6.76h1.68a6.78,6.78,0,0,1,6.76,6.76v7.54a10,10,0,0,1-3.23,7.33C236.07,292.71,234.71,293.92,233.44,293.93Z" fill="#d69270"/><path d="M226.5,281.57s-1.95-2.28-2.58,0,.47,4.17,1.87,4.4C226.91,286.15,226.5,281.57,226.5,281.57Z" fill="#d69270"/><path d="M239.63,281.57s2-2.28,2.57,0-.46,4.17-1.87,4.4C239.22,286.15,239.63,281.57,239.63,281.57Z" fill="#d69270"/><path d="M211.66,389.1a46.16,46.16,0,0,0,5.56-8.32,13.73,13.73,0,0,0-2-3.07,11.74,11.74,0,0,0-10.77-3.51c-.44.71-4.29,7-5.7,10.09-1.5,3.24-.52,5.31,1.21,9.71s4,14.32,4.61,17.56,0,4.39,0,4.39a8.54,8.54,0,0,0,4.6,1.38,4.73,4.73,0,0,0,3.9-1.85s1.27-11.55,1-16.17A43.76,43.76,0,0,0,211.66,389.1Z" fill="#d69270"/><path d="M252.8,386.86a9.7,9.7,0,0,0-1.9-4.13A13.45,13.45,0,0,0,238.08,385c1.11,9.44,2.75,13.35,2.75,13.35a43.63,43.63,0,0,0-5.84,8.7c-1.93,4.21-4.83,15.47-4.83,15.47a4.73,4.73,0,0,0,3,3.1,8.44,8.44,0,0,0,4.8.33s-.15-1.29,1.55-4.1,7.34-11.31,10.51-14.8,4.83-5.1,4.56-8.65S252.8,386.86,252.8,386.86Z" fill="#d69270"/><path d="M225.41,297.69a7.36,7.36,0,0,1-1.67,1.27,9.22,9.22,0,0,0,2.53,4.52c2.27,2.51,7.84,4,11.43,2.51s4.69-7,4.69-7l-1.41-.48a8.05,8.05,0,0,1-2.88,4.55c-2.32,1.65-7.78,1.19-9.78-.58A11.83,11.83,0,0,1,225.41,297.69Z" fill="#0f9d58"/><path d="M231.35,281.17a2,2,0,0,0-3,.48c-.3.43.17.89.46.46a1.89,1.89,0,0,1,2.45-.67C231.4,281.5,231.49,281.25,231.35,281.17Z" fill="#d3694c"/><path d="M235.25,281.17a2,2,0,0,1,3,.48c.3.43-.17.89-.46.46a1.89,1.89,0,0,0-2.45-.67C235.2,281.5,235.11,281.25,235.25,281.17Z" fill="#d3694c"/><path d="M231.81,279.08a1.85,1.85,0,0,0-2.28-.81,2.79,2.79,0,0,0-1.85,1.92.07.07,0,0,0,.11.06c.86-1.18,2.25-2.11,3.69-.91A.21.21,0,0,0,231.81,279.08Z" fill="#040501"/><path d="M234.94,279.08a1.87,1.87,0,0,1,2.29-.81,2.79,2.79,0,0,1,1.85,1.92.07.07,0,0,1-.11.06c-.86-1.18-2.26-2.11-3.69-.91A.22.22,0,0,1,234.94,279.08Z" fill="#040501"/><path d="M225.67,282v2.67s-.78.07-1-1.43S225.67,282,225.67,282Z" fill="#c17853"/><path d="M240.72,281.94l-.11,2.68s.78.07,1-1.42S240.72,281.94,240.72,281.94Z" fill="#c17853"/><path d="M200.92,389.74s1.38,1.31,2.63,2.52.85-1.57-.33-2.16A3.79,3.79,0,0,0,200.92,389.74Z" fill="#ef9373"/><path d="M251.61,402.68s-1.38,1.31-2.63,2.53-.85-1.58.33-2.17A3.88,3.88,0,0,1,251.61,402.68Z" fill="#ef9373"/><path d="M285.27,341.31s2.74,6,.68,10.05c-1.62,1-4.33,1.65-6.15.55,4.07-4.24,3.58-10.25,3.58-10.25Z" fill="#040501"/><path d="M279.88,349.17a27.56,27.56,0,0,1,3.54,1.07c1.39.57.85.86,1.32,1.55s1,1.11,1.38,0-.43-3.11-.43-3.11-2.46-2.26-3.26-2.3-2.84,2.85-2.84,2.85Z" fill="#d69270"/><path d="M183.66,340.9s3.6,3.43,3.58,5.41a5.51,5.51,0,0,1-1.22,3.33s-4,0-4.23-2.11S183.66,340.9,183.66,340.9Z" fill="#040501"/><path d="M202.62,317.75c-1.16,1.65-2.45,3.5-4,5.7-2.95,4.13-6.93,9-9.48,15.49a16.88,16.88,0,0,1-8.31,9.12c-1.6.79-2,1-1.68,2.26a8.41,8.41,0,0,0,.93,2.66c.46.46,1,.18.92-.47.52.41,1,.2,1-.11.14-.56-.74-1.6-.35-1.51a23.6,23.6,0,0,0,2.78.37c1.41.29,3.75.27,4.52-1.8.63-1.68.21-1.51,4.37-6.13s9.33-11.59,11.32-13.41c2.16-1.95,3.86-3.52,5.89-5.39A40,40,0,0,1,202.62,317.75Z" fill="#d69270"/><path d="M181.78,340.55s-2.74,6-.69,10.06c1.62,1,4.33,1.64,6.15.54-4.07-4.24-3.58-10.25-3.58-10.25Z" fill="#040501"/><path d="M187.16,348.42a26.41,26.41,0,0,0-3.53,1.06c-1.39.58-.86.86-1.32,1.55s-1,1.12-1.39,0,.43-3.11.43-3.11,2.46-2.26,3.27-2.3,2.83,2.85,2.83,2.85Z" fill="#d69270"/><path d="M223.3,273.73a5.73,5.73,0,0,0,2.12,4.3s3.54-4,7.57-4.3c6.71-.44,7.62,5.06,7.62,5.06s1.84-5.3,1.78-7.83-3.62-5-5.62-7.83c-.58,0-1.18,1.61-1.18,1.61a11,11,0,0,0-4.08-2.76,10.49,10.49,0,0,0-1.82,2.8l-3.43-1.65a7.14,7.14,0,0,0-1.22,4.14,9.68,9.68,0,0,0-3.86-1.15S222.87,268,223.3,273.73Z" fill="#040501"/><path d="M233.57,280.87s-3.5,5-1.3,5.41,2.53-1.41,1.93-1.63,0,.66-.22.8-2.16.88-1.66-.54A24.75,24.75,0,0,0,233.57,280.87Z" fill="#a55f41"/><path d="M237.1,278a60.38,60.38,0,0,0-7.92,0c-3.72.28-4,2.46-4,2.46s.24,3.52,3.48,3.9,3.27-2.41,4.5-2.51c1.23.1,1.19,2.89,4.49,2.51s3.49-3.9,3.49-3.9S240.81,278.26,237.1,278Z" fill="#040501"/><path d="M236.29,278.53c-1.36-.1-2.34-.12-3.26-.1s-1.9,0-3.26.1c-3.05.23-3.93.94-3.86,2a2.9,2.9,0,0,0,3,3c2.74.07,3.27-2.41,4.28-2.49,1,.08,1.66,2.78,4.38,2.46s2.7-2.22,2.78-3.3S239.34,278.76,236.29,278.53Z" fill="#0f9d58"/><path d="M231,289.1s3.15.74,5.11-.58" fill="#a55f41"/><path d="M217.22,347.91s-4.54,11.66-8.3,16.43-14.5,15.51-13,24,7.85,23.87,7.85,23.87,7,4.4,10.9,1.19c0,0,.72-17.25,0-22.23l-1-2.74s11.94-17.72,14.51-21.29a21,21,0,0,0,3.3-6.71s5.88,30.11,6.88,33.05,1.47,5,1.47,5-5.93,3.86-8.61,18.67l-.47,1.83s4.89,4.59,9.08,4.1c0,0,10.07-15.06,13.74-17.87s1.11-14.93,1.11-14.93l-6.39-43.31Z" fill="#293d87"/><path d="M217.64,348.67s-7.53,16.5-12.67,21.45-9.24,12.69-8.38,18.61,7.32,22.82,7.32,22.82-4.57-18.11-4.63-20.86-1.4-9.86,2.33-14.2S215.62,361.49,217.64,348.67Z" opacity="0.25" fill="url(#linear-gradient-3)" style="isolation:isolate"/><path d="M216.54,382s14.32-22.5,15.05-27.37a28.37,28.37,0,0,1-6.54,15.7A64.13,64.13,0,0,0,216.54,382Z" opacity="0.27" fill="url(#linear-gradient-4)"/><path d="M232.76,357.64l8.81,38s-5-16.62-6.55-22.92-3.61-13.16-3.61-13.16Z" opacity="0.27" fill="url(#linear-gradient-5)"/><path d="M247.75,347.85l6.86,45.77s1.86,6.34-1.9,11-11.48,15.56-13,17.76c0,0,2.75-7.11,4.88-10.33s8.06-8.4,8.61-13.63-2-19.32-2-19.32Z" opacity="0.2" fill="url(#linear-gradient-6)"/><path d="M257.82,306.84c-3.84-6.28-8-7-11.9-7.24a22.43,22.43,0,0,1-2.53-.4l-1-.2h0c-.4-.07-.76-.13-1-.15-.74,2.79-1.78,6.33-9.43,6.34-4.77,0-6.14-4.54-6.5-6.47l-1.69.26c-.09,0-2.66.17-4.19.36-2.77.35-5.65.33-9.08,5.93-2.72,4.45-8.16,12-8.16,12a23.83,23.83,0,0,0,9.63,8.05,17.73,17.73,0,0,0,5.19-7.83c-.15,4.69.52,7.61,1,11.64a47.48,47.48,0,0,1,.09,10.08,57.61,57.61,0,0,1-2.35,9.47c6.28,5.52,23,5.21,33.2,1.31a49,49,0,0,1,.09-7.21c.36-4.5-.12-13.65.18-17.75s-.53-6.44-.36-8.58c1.13,3,3.45,7.15,5.46,8.87,5.11-2.9,9.92-8.85,9.92-8.85S260.54,311.28,257.82,306.84Z" fill="#0f9d58"/><path d="M223.74,299.14s-8.42-.31-11.24,3.79-9.91,14.29-9.91,14.29,10.19-14.32,12.11-15.42S223.74,299.14,223.74,299.14Z" fill="#017739" opacity="0.27"/><path d="M243.15,300s8.42-.3,11.24,3.8,9.91,14.29,9.91,14.29-10.19-14.32-12.11-15.42S243.15,300,243.15,300Z" fill="#017739" opacity="0.27"/><path d="M217.46,313.35s2.26,12.59,7.59,13.33c0,0-2.18-.13-3.05,5.2s-4,16.6-3.41,17.76a12.84,12.84,0,0,1-.53-6.24c.53-3.64,1.55-13.48,1-16.36s-1.94-9.56-1.94-9.56Z" fill="#017739" opacity="0.27"/><path d="M248.18,313.35s.72,11.7-4.61,12.44c0,0,1.52.76,2.39,6.09s1.64,16.6,1.09,17.76a16.34,16.34,0,0,0,1.48-6.15c.25-4.76-.55-13.22,0-16.1s0-9.91,0-9.91Z" fill="#017739" opacity="0.27"/><path d="M319.9,90.12A143,143,0,0,1,322.1,117c0,1.09-.06,2.17-.1,3.23-.06,1.35-.14,2.65-.23,4-6.82-14.07-24.21-24-44.6-24-.82,0-1.74,0-2.55,0,.08-.38.15-.53.3-1.08.05-.22.17-.54.21-.77a.19.19,0,0,0,0-.07c0-.11.05-.23.08-.35.12-.61.24-1.22.35-1.83q.51-2.76.85-5.63c.05-.36.1-.73.13-1.1s.07-.54.09-.82c.08-.71.16-1.44.21-2.17.29-3.14.42-6.36.42-9.63,0-.76,0-1.53,0-2.28,0-.23,0-.46,0-.69,0-.44,0-.9-.05-1.34s0-.88-.05-1.31c0-.22,0-.43,0-.64s0-.3,0-.45l-.06-.9c0-.12,0-.23,0-.34l-.15-1.92c-.08-.88-.17-1.73-.27-2.58,0-.28-.06-.57-.1-.85-.08-.7-.17-1.4-.26-2.09,0,0,0,0,0-.07-.12-.8-.25-1.59-.37-2.39-.1-.59-.21-1.18-.32-1.77,0-.25-.09-.49-.14-.73s-.06-.38-.1-.57c-.11-.53-.22-1.06-.32-1.58,0-.12,0-.25-.08-.36-.08-.36-.17-.72-.24-1.07s-.17-.72-.25-1.06c0,0,0-.07,0-.11-.17-.69-.34-1.37-.53-2-.22-.86-.46-1.71-.71-2.55-.18-.6-.35-1.19-.55-1.77l0,0a2,2,0,0,0-.07-.26c-.08-.24-.16-.48-.25-.71-.15-.49-.31-1-.49-1.46s-.25-.72-.39-1.07-.14-.43-.22-.63l-.16-.42c-.27-.7-.55-1.39-.83-2.07-.13-.34-.28-.68-.42-1s-.29-.67-.44-1c-.08-.17-.15-.34-.22-.5-.22-.49-.46-1-.69-1.47-.16-.32-.31-.65-.46-1s-.34-.68-.52-1l-.09-.18L267,32l-.4-.74-.17-.31c0-.06-.07-.14-.11-.21-.3-.53-.6-1.06-.92-1.58s-.7-1.16-1.07-1.73l-.55-.84,0-.05c-.08-.14-.17-.27-.26-.41-.21-.33-.44-.65-.68-1l-.92-1.26-.47-.62-.68-.87c-.08-.11-.17-.2-.24-.3-.26-.32-.53-.63-.8-.94l-.42-.49c-.49-.55-1-1.1-1.5-1.63l-.77-.77c-.22-.22-.44-.44-.66-.64a1.8,1.8,0,0,0-.19-.2l-.48-.42c-.72-.67-1.46-1.29-2.2-1.87l0,0-.94-.72-.23-.15a5.2,5.2,0,0,0-.47-.35c-.15-.1-.28-.2-.43-.29l-.09-.06a33.2,33.2,0,0,0-3.6-2.12c.66-.16,1.31-.3,2-.42,11.47-2,23.1,1.85,33.61,10.1h0c.11.1.23.18.35.27l.34.27h0c.59.48,1.17,1,1.75,1.47s.91.79,1.35,1.21,1,.94,1.53,1.43l.06,0,1.47,1.46,1.49,1.56c.48.54,1,1.08,1.45,1.62s1.14,1.31,1.7,2l1.17,1.43c.89,1.12,1.76,2.28,2.62,3.46a1.3,1.3,0,0,0,.15.2c.43.62.89,1.26,1.33,1.91s.89,1.3,1.3,2,.81,1.25,1.22,1.89c.09.16.19.3.26.45q.54.86,1.05,1.74c.42.69.82,1.4,1.23,2.11l1.17,2.15c.79,1.48,1.54,3,2.28,4.5s1.44,3.08,2.11,4.66c.35.79.69,1.59,1,2.4s.61,1.51.91,2.28c.06.12.09.25.14.37l.84,2.26c.3.83.61,1.68.89,2.52s.49,1.48.73,2.23c.08.22.16.46.22.69.24.75.46,1.49.69,2.24s.48,1.63.71,2.44c0,.14.08.27.11.42.16.56.32,1.13.45,1.69s.22.84.33,1.25c.45,1.76.86,3.53,1.24,5.33.14.63.26,1.26.4,1.91C319.5,87.93,319.7,89,319.9,90.12Z" fill="url(#linear-gradient-7)"/><path d="M283.25,21.05c23.29,2.61,48.48,27.17,61.34,62.45,7.4,20.35,9.34,40.59,6.58,57.34-2.48-9.57-13.31-16.79-26.31-16.79q-1.58,0-3.09.15c.09-1.32.18-2.64.23-4,0-1.06.08-2.14.1-3.23a143,143,0,0,0-2.2-26.87c-.2-1.1-.4-2.19-.61-3.26-.14-.65-.26-1.28-.4-1.91-.38-1.8-.79-3.57-1.24-5.33-.11-.41-.21-.83-.33-1.25s-.29-1.13-.45-1.69c0-.15-.07-.28-.11-.42-.23-.81-.48-1.64-.71-2.44s-.45-1.49-.69-2.24c-.06-.23-.14-.47-.22-.69-.24-.75-.47-1.49-.73-2.23s-.59-1.69-.89-2.52l-.84-2.26c-.05-.12-.08-.25-.14-.37-.3-.77-.6-1.53-.91-2.28s-.66-1.61-1-2.4c-.67-1.58-1.39-3.14-2.11-4.66s-1.49-3-2.28-4.5l-1.17-2.15c-.41-.71-.81-1.42-1.23-2.11s-.69-1.17-1.05-1.74c-.07-.15-.17-.29-.26-.45-.41-.64-.8-1.27-1.22-1.89s-.87-1.32-1.3-2-.9-1.29-1.33-1.91a1.3,1.3,0,0,1-.15-.2c-.86-1.18-1.73-2.34-2.62-3.46l-1.17-1.43c-.56-.68-1.13-1.33-1.7-2s-1-1.08-1.45-1.62l-1.49-1.56-1.47-1.46-.06,0c-.5-.49-1-1-1.53-1.43s-.9-.82-1.35-1.21-1.16-1-1.75-1.47h0l-.34-.27Z" fill="url(#linear-gradient-8)"/><path d="M195.14,98c-.5-2.43-.9-4.91-1.21-7.46-.05-.36-.1-.73-.14-1.1s-.07-.54-.08-.82c-.08-.71-.16-1.44-.22-2.17-.28-3.14-.41-6.36-.41-9.63,0-.76,0-1.53,0-2.28,0-.23,0-.46,0-.69,0-.44,0-.9,0-1.34,0-.65.05-1.3.1-1.95,0-.46.05-.9.08-1.35,0-.12,0-.23,0-.34q.06-1,.15-1.92c.08-.88.17-1.73.26-2.58,0-.28.07-.57.11-.85.08-.7.16-1.4.27-2.09v-.07c.12-.8.24-1.59.37-2.39.1-.59.2-1.18.32-1.77,0-.25.09-.49.13-.73s.07-.38.11-.57c.11-.53.21-1.06.32-1.58l.09-.36q.22-1.08.48-2.13a.43.43,0,0,0,0-.11c.17-.69.34-1.37.52-2,.24-.86.47-1.71.72-2.55s.43-1.4.65-2.08.47-1.46.73-2.17.51-1.43.78-2.12.53-1.39.81-2.07c.14-.34.29-.68.43-1s.29-.67.44-1,.3-.66.45-1,.31-.66.46-1,.31-.65.47-1,.34-.68.51-1,.3-.59.46-.88.34-.62.5-.92.34-.6.51-.9l.52-.89c.35-.58.7-1.16,1.07-1.73.18-.28.36-.56.55-.84a54.62,54.62,0,0,1,4.09-5.43l.42-.49c.49-.55,1-1.1,1.5-1.63l.77-.77A36.08,36.08,0,0,1,216,15.78c.29-.25.59-.49.89-.72l.94-.72c.44-.32.87-.62,1.31-.91a32.43,32.43,0,0,1,3.54-2h0a27,27,0,0,1,25,0h0a32.67,32.67,0,0,1,3.64,2.11l.09.06c.3.2.6.41.9.64l.23.15.94.72,0,0c.28.22.57.44.84.68.45.38.92.78,1.36,1.19.23.19.45.4.67.62s.44.42.66.64l.77.77c.52.53,1,1.08,1.5,1.63l.42.49c.35.41.69.81,1,1.24l.68.87c.15.21.32.41.47.62l.92,1.26c.32.46.63.92.94,1.39l0,.05.55.84c.37.57.72,1.15,1.07,1.73l.52.89c.14.24.26.46.4.69,0,.07.07.15.11.21l.17.31c.1.21.22.41.33.61s.25.47.37.7l.09.18c.18.32.34.66.52,1s.3.64.46,1,.31.65.45,1l.24.49c.07.16.14.33.22.5.15.33.29.66.44,1s.29.67.42,1c.28.68.56,1.37.83,2.07.12.34.26.69.38,1.05s.27.71.39,1.07.34,1,.49,1.46c.11.32.23.65.32,1l0,0c.19.59.37,1.18.55,1.77.25.84.49,1.69.71,2.55.19.66.36,1.34.53,2,0,0,0,.07,0,.11.08.34.16.7.25,1.06s.15.71.23,1.07l.09.36c.1.52.21,1,.32,1.58,0,.19.07.38.1.57s.1.48.14.73c.11.59.22,1.18.32,1.77.12.8.25,1.59.37,2.39,0,0,0,0,0,.07.09.69.18,1.39.26,2.09,0,.28.08.57.1.85.1.85.19,1.7.27,2.58l.15,1.92c0,.11,0,.22,0,.34q0,.45.06.9c0,.15,0,.3,0,.45s0,.42,0,.64c0,.43,0,.87.05,1.31s0,.9.05,1.34c0,.23,0,.46,0,.69,0,.75,0,1.52,0,2.28,0,3.27-.13,6.49-.42,9.63-.05.73-.13,1.46-.21,2.17,0,.28,0,.55-.09.82s-.08.74-.13,1.1q-.35,2.87-.85,5.63L275.22,98c0,.11-.05.23-.07.35a.19.19,0,0,1,0,.07c-.16.69-.31,1-.51,1.85-10.63-7-24.43-10.48-39.44-10.48S205.71,92,195.08,99h0C195,98.67,195.21,98.32,195.14,98Z" fill="url(#linear-gradient-9)"/><path d="M195.06,99.05c-20.39,0-39.65,11.08-46.47,25.15-.1-1.32-.18-2.64-.23-4,0-1.06-.07-2.14-.1-3.23a141.39,141.39,0,0,1,2.2-26.87c.2-1.1.4-2.19.61-3.26.13-.65.26-1.28.4-1.91.38-1.8.79-3.57,1.24-5.33.1-.41.21-.83.33-1.25s.3-1.13.45-1.69c0-.15.07-.28.11-.42l.7-2.44c.24-.75.46-1.49.69-2.24.07-.23.15-.47.22-.69.25-.75.49-1.49.74-2.23s.58-1.69.88-2.52l.84-2.26.15-.37c.3-.77.6-1.53.91-2.28s.67-1.61,1-2.4c.67-1.58,1.38-3.14,2.11-4.66s1.49-3,2.29-4.5c.37-.72.77-1.44,1.17-2.15s.8-1.42,1.22-2.11.68-1.17,1-1.74c.08-.15.18-.29.27-.45.4-.64.8-1.27,1.22-1.89s.87-1.32,1.3-2,.89-1.29,1.34-1.91a2.43,2.43,0,0,0,.14-.2c.86-1.18,1.73-2.34,2.62-3.46l1.16-1.43c.56-.68,1.14-1.33,1.71-2s1-1.08,1.45-1.62,1-1.05,1.5-1.56l1.45-1.46s0,0,.06,0c.51-.49,1-1,1.53-1.43s.9-.82,1.36-1.21,1.16-1,1.75-1.47h0l.34-.27.35-.27h0C197.62,12.8,209.26,8.93,220.72,11c.67.12,1.32.27,2,.42a31.23,31.23,0,0,0-3.51,2.06c-.44.29-.87.59-1.31.91l-.94.72c-.3.23-.6.47-.89.72a36.08,36.08,0,0,0-2.69,2.45l-.77.77c-.51.53-1,1.08-1.5,1.63l-.42.49a54.62,54.62,0,0,0-4.09,5.43c-.19.28-.37.56-.55.84-.37.57-.72,1.15-1.07,1.73l-.52.89c-.17.3-.33.6-.51.9s-.34.61-.5.92-.3.59-.46.88-.34.66-.51,1-.32.64-.47,1-.31.65-.46,1-.3.65-.45,1-.29.66-.44,1-.29.67-.43,1c-.28.68-.56,1.37-.81,2.07s-.53,1.4-.78,2.12-.5,1.44-.73,2.17-.45,1.38-.65,2.08-.48,1.69-.72,2.55c-.18.66-.35,1.34-.52,2a.43.43,0,0,1,0,.11q-.25,1-.48,2.13l-.09.36c-.11.52-.21,1-.32,1.58,0,.19-.08.38-.11.57s-.09.48-.13.73c-.12.59-.22,1.18-.32,1.77-.13.8-.25,1.59-.37,2.39v.07c-.11.69-.19,1.39-.27,2.09,0,.28-.08.57-.11.85-.09.85-.18,1.7-.26,2.58q-.09.94-.15,1.92c0,.11,0,.22,0,.34,0,.45-.07.89-.08,1.35,0,.65-.08,1.3-.1,1.95,0,.44,0,.9,0,1.34,0,.23,0,.46,0,.69,0,.75,0,1.52,0,2.28,0,3.27.13,6.49.41,9.63.06.73.14,1.46.22,2.17,0,.28,0,.55.08.82s.09.74.14,1.1c.31,2.55.71,5,1.21,7.46.07.37-.15.72-.07,1.09a.45.45,0,0,1,0-.08h0s0,0,0,0a.45.45,0,0,0,0,.08V99h0Z" fill="url(#linear-gradient-10)"/><path d="M148.36,120.22c0,1.34.13,2.66.23,4-1-.1-2-.15-3.09-.15-13,0-23.84,7.22-26.32,16.79-2.76-16.75-.8-37,6.6-57.34,12.84-35.28,38-59.84,61.33-62.45l-.33.27-.34.27h0c-.59.48-1.17,1-1.75,1.47s-.91.79-1.36,1.21-1,.94-1.53,1.43c0,0,0,0-.06,0l-1.45,1.46q-.75.77-1.5,1.56c-.48.54-1,1.08-1.45,1.62s-1.15,1.31-1.71,2l-1.16,1.43c-.89,1.12-1.76,2.28-2.62,3.46a2.43,2.43,0,0,1-.14.2c-.45.62-.89,1.26-1.34,1.91s-.88,1.3-1.3,2-.82,1.25-1.22,1.89c-.09.16-.19.3-.27.45-.36.57-.7,1.15-1,1.74s-.83,1.4-1.22,2.11-.8,1.43-1.17,2.15q-1.2,2.22-2.29,4.5c-.73,1.52-1.44,3.08-2.11,4.66-.34.79-.69,1.59-1,2.4s-.61,1.51-.91,2.28l-.15.37-.84,2.26c-.3.83-.6,1.68-.88,2.52s-.49,1.48-.74,2.23c-.07.22-.15.46-.22.69-.23.75-.45,1.49-.69,2.24l-.7,2.44c0,.14-.08.27-.11.42-.15.56-.31,1.13-.45,1.69s-.23.84-.33,1.25c-.45,1.76-.86,3.53-1.24,5.33-.14.63-.27,1.26-.4,1.91-.21,1.07-.41,2.16-.61,3.26a141.39,141.39,0,0,0-2.2,26.87C148.29,118.08,148.32,119.16,148.36,120.22Z" fill="url(#linear-gradient-11)"/><path d="M155.31,114.89a35.24,35.24,0,0,0-6.72,9.31c-1-.1-2-.15-3.09-.15-13,0-23.84,7.22-26.32,16.79,2.48,9.59,13.32,16.81,26.32,16.81,1,0,2-.05,2.92-.13C148.24,153.39,148.05,136.3,155.31,114.89Z" fill="url(#linear-gradient-12)"/><path d="M324.86,124.05c-1.05,0-2.07,0-3.09.15a36.08,36.08,0,0,0-6.78-9.49c7.32,21.5,7.13,38.67,6.95,42.81,1,.08,1.93.13,2.92.13,13,0,23.83-7.22,26.31-16.81C348.69,131.27,337.86,124.05,324.86,124.05Z" fill="url(#linear-gradient-13)"/><path d="M269.29,97.14c-9.74-5-21.49-7.4-34.11-7.4-12.1,0-23.84,1.49-33.5,5.74a152.93,152.93,0,0,0-6.16,87.43c10.58,6.8,24.85,9.05,39.66,9.05,15,0,28.81-3.46,39.44-10.48h.55A153.25,153.25,0,0,0,269.29,97.14Z" fill="url(#linear-gradient-14)"/><path d="M155.31,114.89a35.24,35.24,0,0,0-6.72,9.31c-1-.1-2-.15-3.09-.15-13,0-23.84,7.22-26.32,16.79,2.48,9.59,13.32,16.81,26.32,16.81,1,0,2-.05,2.92-.13C148.24,153.39,148.05,136.3,155.31,114.89Z" fill="#353535" opacity="0.25"/><path d="M324.86,124.05c-1.05,0-2.07,0-3.09.15a36.08,36.08,0,0,0-6.78-9.49c7.32,21.5,7.13,38.67,6.95,42.81,1,.08,1.93.13,2.92.13,13,0,23.83-7.22,26.31-16.81C348.69,131.27,337.86,124.05,324.86,124.05Z" fill="#353535" opacity="0.25"/><path d="M269.29,97.14c-9.74-5-21.49-7.4-34.11-7.4-12.1,0-23.84,1.49-33.5,5.74a152.93,152.93,0,0,0-6.16,87.43c10.58,6.8,24.85,9.05,39.66,9.05,15,0,28.81-3.46,39.44-10.48h.55A153.25,153.25,0,0,0,269.29,97.14Z" fill="#353535" opacity="0.25"/><path d="M315,114.71c-8.72-8.85-22.41-14.53-37.81-14.53-.83,0-1.75,0-2.56,0a54.75,54.75,0,0,0-5.33-3.08,153.25,153.25,0,0,1,5.88,84.35l2,0c20.38,0,37.77-10,44.59-24l.17,0C322.12,153.38,322.31,136.21,315,114.71Z" fill="url(#linear-gradient-15)"/><path d="M201.68,95.48a43.93,43.93,0,0,0-6.6,3.56c.2,0,.39,0,0,0a.13.13,0,0,1,0,.06l0-.06c-15.6,0-30.54,6.49-39.75,15.84-7.26,21.41-7.07,38.5-6.89,42.63l.17,0c6.82,14.07,26.08,25.14,46.47,25.14,0,0,0,0,0,0a0,0,0,0,0,0,0s0,0,0,0v0c0-.06,0-.08,0-.07s0,0,0,.07a.11.11,0,0,1,0,0,.2.2,0,0,1,0,.07c.4,0,.21,0,0,0l.43.26A152.93,152.93,0,0,1,201.68,95.48Zm-6.59,3.69a.18.18,0,0,1,0,.06.18.18,0,0,0,0-.06.11.11,0,0,0,0,0A.11.11,0,0,1,195.09,99.17Z" fill="url(#linear-gradient-16)"/><path d="M321.77,126.13a1.94,1.94,0,1,1,1.93-1.93A1.94,1.94,0,0,1,321.77,126.13Zm0-2.9a1,1,0,1,0,1,1A1,1,0,0,0,321.77,123.23Z" fill="#6a6a6a"/><path d="M274.62,102.16a1.94,1.94,0,1,1,1.94-1.94A1.94,1.94,0,0,1,274.62,102.16Zm0-2.91a1,1,0,1,0,1,1A1,1,0,0,0,274.62,99.25Z" fill="#6a6a6a"/><path d="M195.07,101A1.94,1.94,0,1,1,197,99,1.94,1.94,0,0,1,195.07,101Zm0-2.91a1,1,0,1,0,1,1A1,1,0,0,0,195.07,98.07Z" fill="#6a6a6a"/><path d="M148.59,126.13a1.94,1.94,0,1,1,1.94-1.93A1.94,1.94,0,0,1,148.59,126.13Zm0-2.9a1,1,0,1,0,1,1A1,1,0,0,0,148.59,123.23Z" fill="#6a6a6a"/><path d="M148.42,159.45a1.94,1.94,0,1,1,1.94-1.93A1.94,1.94,0,0,1,148.42,159.45Zm0-2.9a1,1,0,1,0,1,1A1,1,0,0,0,148.42,156.55Z" fill="#6a6a6a"/><path d="M195.07,184.54A1.94,1.94,0,1,1,197,182.6,1.94,1.94,0,0,1,195.07,184.54Zm0-2.91a1,1,0,1,0,1,1A1,1,0,0,0,195.07,181.63Z" fill="#6a6a6a"/><path d="M275.17,183.46a1.94,1.94,0,1,1,1.94-1.94A1.94,1.94,0,0,1,275.17,183.46Zm0-2.9a1,1,0,1,0,1,1A1,1,0,0,0,275.17,180.56Z" fill="#6a6a6a"/><path d="M321.94,159.45a1.94,1.94,0,1,1,1.94-1.93A1.94,1.94,0,0,1,321.94,159.45Zm0-2.9a1,1,0,1,0,1,1A1,1,0,0,0,321.94,156.55Z" fill="#6a6a6a"/><line x1="274.92" y1="99.14" x2="279.1" y2="262.31" fill="none" stroke="#231f20" stroke-miterlimit="10" stroke-width="1.27"/><polyline points="321.52 123.69 279.1 263.32 322.45 157.06" fill="none" stroke="#231f20" stroke-miterlimit="10" stroke-width="1.27"/><line x1="195.03" y1="98.91" x2="192.27" y2="262.31" fill="none" stroke="#231f20" stroke-miterlimit="10" stroke-width="1.27"/><line x1="192.27" y1="263.32" x2="148.36" y2="157.22" fill="none" stroke="#231f20" stroke-miterlimit="10" stroke-width="1.27"/><line x1="148.52" y1="123.78" x2="192.27" y2="263.32" fill="none" stroke="#231f20" stroke-miterlimit="10" stroke-width="1.27"/><path d="M218.25,336.23,218,340.4a41.4,41.4,0,0,0,15.29,3,70.61,70.61,0,0,0,16.14-2v-4.23a65.57,65.57,0,0,1-16.43,2A45.06,45.06,0,0,1,218.25,336.23Z" fill="#040501"/><path d="M216.09,298.71s.46,5.17,1.13,9.5,7.36,4.29,7.42-1.27a38.19,38.19,0,0,0-.9-9.25S218,296.47,216.09,298.71Z" fill="#040501"/><path d="M249,300s-.46,4.23-1.13,8.56-7.36,4.3-7.42-1.26a38.23,38.23,0,0,1,.9-9.26S247.12,297.74,249,300Z" fill="#040501"/><path d="M220.37,310.38s.82,10.71,1.26,14.93.78,13.89.78,13.89h1.33s-.12-11.67-.64-18.42-1-10.92-1-10.92Z" fill="#040501"/><path d="M245.3,311s-.83,10.71-1.26,14.93-.78,13.9-.78,13.9h-1.33s.12-11.67.64-18.43,1-10.92,1-10.92Z" fill="#040501"/><path d="M218.25,331a43.94,43.94,0,0,0,14.12,2.43,146.24,146.24,0,0,0,17.76-1.22V334a145.94,145.94,0,0,1-18.71,1.13,51.41,51.41,0,0,1-13.17-2.06Z" fill="#040501"/></g></g></svg>