<svg xmlns="http://www.w3.org/2000/svg" width="36.216" height="31.455" viewBox="0 0 36.216 31.455">
  <g id="Business_Sales" data-name="Business &amp; Sales" transform="translate(-9.998 -42.339)">
    <path id="Path_46" data-name="Path 46" d="M150.2,304.608a.837.837,0,0,1,.836.836.442.442,0,0,0,.883,0,1.722,1.722,0,0,0-1.278-1.662v-.318a.442.442,0,0,0-.883,0v.318a1.719,1.719,0,0,0,.442,3.381.836.836,0,1,1,.009,1.672h-.018a.837.837,0,0,1-.827-.836.442.442,0,0,0-.883,0,1.722,1.722,0,0,0,1.278,1.662v.376a.442.442,0,0,0,.883,0v-.376a1.719,1.719,0,0,0-.442-3.381.836.836,0,1,1,0-1.672Z" transform="translate(-128.29 -241.495)" fill="#0f9d58"/>
    <path id="Path_47" data-name="Path 47" d="M53.7,57.535a.44.44,0,0,0,.257-.083l12.535-9,4.153,4.916a.442.442,0,0,0,.607.065l10.339-7.973L83,47.079a.442.442,0,0,0,.774-.259l.261-3.747a.442.442,0,0,0-.41-.471l-3.747-.261a.442.442,0,0,0-.364.73l1.5,1.72-9.963,7.683L66.9,47.569a.442.442,0,0,0-.595-.074L53.44,56.735a.442.442,0,0,0,.258.8ZM80.879,43.3l2.243.156-.156,2.243Z" transform="translate(-40.073)" fill="#0f9d58"/>
    <path id="Path_48" data-name="Path 48" d="M354.342,166.738h-8.134a1.732,1.732,0,0,0-1.73,1.73v.1a1.726,1.726,0,0,0,.577,1.288,1.726,1.726,0,0,0-.577,1.288v.1a1.726,1.726,0,0,0,.576,1.288,1.727,1.727,0,0,0-.576,1.288v.1a1.726,1.726,0,0,0,.577,1.288,1.726,1.726,0,0,0-.577,1.288v.1a1.726,1.726,0,0,0,.577,1.288,1.726,1.726,0,0,0-.577,1.288v.1a1.726,1.726,0,0,0,.577,1.288,1.726,1.726,0,0,0-.577,1.288v.1a1.726,1.726,0,0,0,.577,1.288,1.726,1.726,0,0,0-.577,1.288v.1a1.726,1.726,0,0,0,.577,1.288,1.726,1.726,0,0,0-.577,1.288v.1a1.732,1.732,0,0,0,1.73,1.73h8.134a1.732,1.732,0,0,0,1.73-1.731v-.1a1.727,1.727,0,0,0-.577-1.288,1.726,1.726,0,0,0,.577-1.288v-.1a1.726,1.726,0,0,0-.576-1.288,1.727,1.727,0,0,0,.576-1.288v-.1a1.726,1.726,0,0,0-.577-1.288,1.726,1.726,0,0,0,.577-1.288v-.1a1.727,1.727,0,0,0-.577-1.288,1.726,1.726,0,0,0,.577-1.288v-.1a1.726,1.726,0,0,0-.577-1.288,1.726,1.726,0,0,0,.577-1.288v-.1a1.726,1.726,0,0,0-.577-1.288,1.726,1.726,0,0,0,.577-1.288v-.1a1.726,1.726,0,0,0-.577-1.288,1.726,1.726,0,0,0,.577-1.288v-.1A1.732,1.732,0,0,0,354.342,166.738Zm.847,20.568a.848.848,0,0,1-.847.847h-8.134a.848.848,0,0,1-.847-.847v-.1a.848.848,0,0,1,.831-.846h8.166a.848.848,0,0,1,.831.846Zm0-2.677a.848.848,0,0,1-.831.846h-8.166a.848.848,0,0,1-.831-.846v-.1a.848.848,0,0,1,.83-.847h8.168a.848.848,0,0,1,.83.846Zm0-2.677a.848.848,0,0,1-.83.846H346.19a.848.848,0,0,1-.83-.846v-.1a.847.847,0,0,1,.831-.847h8.166a.848.848,0,0,1,.831.847Zm0-2.677a.848.848,0,0,1-.831.846h-8.166a.848.848,0,0,1-.831-.847v-.1a.848.848,0,0,1,.83-.847h8.168a.848.848,0,0,1,.83.847Zm0-2.677a.848.848,0,0,1-.83.846H346.19a.848.848,0,0,1-.83-.846v-.1a.848.848,0,0,1,.83-.847h8.168a.848.848,0,0,1,.83.847Zm0-2.677a.848.848,0,0,1-.83.846H346.19a.848.848,0,0,1-.83-.846v-.1a.848.848,0,0,1,.83-.847h8.168a.848.848,0,0,1,.83.847Zm0-2.677a.848.848,0,0,1-.83.847H346.19a.848.848,0,0,1-.83-.847v-.1a.848.848,0,0,1,.831-.846h8.167a.848.848,0,0,1,.831.846Zm0-2.677a.848.848,0,0,1-.831.846h-8.167a.848.848,0,0,1-.831-.846v-.1a.848.848,0,0,1,.847-.847h8.134a.848.848,0,0,1,.847.847Z" transform="translate(-309.858 -115.242)" fill="#0f9d58"/>
    <path id="Path_49" data-name="Path 49" d="M32.094,238.59H23.96a1.732,1.732,0,0,0-1.73,1.731v.1a1.726,1.726,0,0,0,.593,1.3,1.787,1.787,0,0,0-.34.411,4.951,4.951,0,0,0-5.513,4.5H11.779a1.779,1.779,0,0,0-1.168,3.123,1.777,1.777,0,0,0-.035,2.653A1.726,1.726,0,0,0,10,253.7v.1a1.732,1.732,0,0,0,1.73,1.73h8.134a1.732,1.732,0,0,0,1.73-1.73v-.1a1.727,1.727,0,0,0-.576-1.288,1.782,1.782,0,0,0,.339-.423,4.857,4.857,0,0,0,1.111,0,1.772,1.772,0,0,0,.376.458,1.727,1.727,0,0,0-.613,1.32v.1a1.732,1.732,0,0,0,1.73,1.73h8.134a1.732,1.732,0,0,0,1.73-1.73v-.1a1.727,1.727,0,0,0-.616-1.322,1.777,1.777,0,0,0,0-2.687,1.777,1.777,0,0,0,0-2.684,1.777,1.777,0,0,0,0-2.684,1.777,1.777,0,0,0,.019-2.667,1.726,1.726,0,0,0,.593-1.3v-.1A1.732,1.732,0,0,0,32.094,238.59Zm-20.315,8.93h5.194a4.92,4.92,0,0,0,.521,1.795H11.779a.9.9,0,1,1,0-1.795Zm0,2.684h6.3a4.976,4.976,0,0,0,2.318,1.58.893.893,0,0,1-.389.194H11.587a.9.9,0,0,1,.191-1.774Zm8.931,3.6a.848.848,0,0,1-.847.847H11.729a.848.848,0,0,1-.847-.847v-.1a.848.848,0,0,1,.691-.832h8.444a.848.848,0,0,1,.694.833Zm1.2-2.663a4.077,4.077,0,1,1,4.077-4.077A4.077,4.077,0,0,1,21.911,251.138Zm11.03,2.73a.848.848,0,0,1-.847.847H23.96a.848.848,0,0,1-.847-.847v-.1a.848.848,0,0,1,.847-.847h8.134a.848.848,0,0,1,.847.847Zm-.9-1.87H24.01a.9.9,0,0,1-.583-.214,4.977,4.977,0,0,0,2.32-1.581h6.3a.9.9,0,1,1,0,1.795Zm0-2.684H26.329a4.919,4.919,0,0,0,.521-1.795h5.194a.9.9,0,1,1,0,1.795Zm0-2.684H26.852a4.92,4.92,0,0,0-.509-1.795h5.7a.9.9,0,1,1,0,1.795Zm0-2.684H25.768a4.977,4.977,0,0,0-2.316-1.6.9.9,0,0,1,.558-.2h8.034a.9.9,0,1,1,0,1.795Zm.9-3.525a.848.848,0,0,1-.847.847H23.96a.848.848,0,0,1-.847-.847v-.1a.848.848,0,0,1,.847-.847h8.134a.848.848,0,0,1,.847.847Z" transform="translate(0 -181.805)" fill="#0f9d58"/>
  </g>
</svg>
