<svg xmlns="http://www.w3.org/2000/svg" width="39.473" height="39.473" viewBox="0 0 39.473 39.473">
  <g id="Graphic_Designing" data-name="Graphic Designing" transform="translate(-8 -8)">
    <path id="Path_7" data-name="Path 7" d="M188.619,200.551l-5.73-8.277a.637.637,0,0,0-1.047,0l-5.73,8.277a.636.636,0,0,0-.08.563l1.631,4.892h-.39a.637.637,0,0,0-.637.637v1.91a.637.637,0,0,0,.637.637h.637v7a.637.637,0,0,0,.637.637h7.64a.637.637,0,0,0,.637-.637v-7h.637a.637.637,0,0,0,.637-.637v-1.91a.637.637,0,0,0-.637-.637h-.39l1.631-4.892A.636.636,0,0,0,188.619,200.551Zm-6.254-.911a.637.637,0,1,1-.637.637A.637.637,0,0,1,182.365,199.64Zm3.183,15.917h-6.367V209.19h6.367Zm1.273-7.64h-8.913v-.637h8.913Zm-1.1-1.91H179l-1.665-4.992,4.389-6.34v3.692a.675.675,0,0,0,.01.107,1.91,1.91,0,1,0,1.254,0,.673.673,0,0,0,.01-.107v-3.692l4.389,6.34Z" transform="translate(-154.629 -169.357)" fill="#0f9d58"/>
    <path id="Path_8" data-name="Path 8" d="M46.836,15H44.29a.637.637,0,0,0-.637.637v.642a.657.657,0,0,0-.08-.006H29.647V15.64A.637.637,0,0,0,29.01,15h-.637V11.82h.637a.637.637,0,0,0,.637-.637V8.637A.637.637,0,0,0,29.01,8H26.463a.637.637,0,0,0-.637.637v2.547a.637.637,0,0,0,.637.637H27.1V15h-.637a.637.637,0,0,0-.637.637v.637H11.82V15.64A.637.637,0,0,0,11.183,15H8.637A.637.637,0,0,0,8,15.64v2.547a.637.637,0,0,0,.637.637h2.547a.637.637,0,0,0,.637-.637V17.55H22.346a9.959,9.959,0,0,0-2.228,2.017,11.07,11.07,0,0,0-2.568,6.9h-.637a.637.637,0,0,0-.637.637v2.547a.637.637,0,0,0,.637.637H19.46a.637.637,0,0,0,.637-.637V27.1a.637.637,0,0,0-.637-.637h-.637c0-4.721,3.632-8.445,7-8.872v.6a.637.637,0,0,0,.637.637H29.01a.637.637,0,0,0,.637-.637v-.6a7.173,7.173,0,0,1,4.714,2.96,11.176,11.176,0,0,1,2.267,5.914h-.614a.637.637,0,0,0-.637.637v2.547a.637.637,0,0,0,.637.637H38.56a.637.637,0,0,0,.637-.637V27.1a.637.637,0,0,0-.637-.637H37.9a12.293,12.293,0,0,0-2.536-6.695,10.059,10.059,0,0,0-2.34-2.219H43.574a.657.657,0,0,0,.08-.006v.642a.637.637,0,0,0,.637.637h2.547a.637.637,0,0,0,.637-.637V15.64A.637.637,0,0,0,46.836,15ZM10.547,17.55H9.273V16.277h1.273Zm8.277,11.46H17.55V27.737h1.273ZM27.1,9.273h1.273v1.273H27.1Zm1.273,8.277H27.1V16.277h1.273ZM36.65,27.737h1.273V29.01H36.65ZM46.2,17.55H44.926V16.277H46.2Z" fill="#0f9d58"/>
  </g>
</svg>
