<svg id="Music_Audio" data-name="Music &amp; Audio" xmlns="http://www.w3.org/2000/svg" width="31.166" height="31.166" viewBox="0 0 31.166 31.166">
  <g id="Group_6" data-name="Group 6">
    <g id="Group_5" data-name="Group 5">
      <path id="Path_43" data-name="Path 43" d="M28.569,6.988V.649a.649.649,0,1,0-1.3,0V5.31a15.379,15.379,0,1,0,1.3,1.678ZM15.583,29.868A14.284,14.284,0,1,1,27.27,7.4v9.866l-3.246,3.246-.84-.84a.649.649,0,0,0-.918,0l-3.9,3.9a.649.649,0,0,0,0,.918l.839.84-.84.84a.649.649,0,1,0,.918.918l.84-.84.84.84a.649.649,0,0,0,.918,0l3.9-3.9a.649.649,0,0,0,0-.918l-.84-.84,3.437-3.437a.649.649,0,0,0,.19-.459V9.667a14.256,14.256,0,0,1-12.986,20.2ZM24.4,22.725,21.427,25.7l-1.679-1.679,2.978-2.978Z" fill="#0f9d58"/>
      <path id="Path_44" data-name="Path 44" d="M162.319,155.826a6.493,6.493,0,1,0-6.493,6.493A6.5,6.5,0,0,0,162.319,155.826Zm-6.493,5.194a5.194,5.194,0,1,1,5.194-5.194A5.2,5.2,0,0,1,155.826,161.02Z" transform="translate(-140.243 -140.243)" fill="#0f9d58"/>
      <circle id="Ellipse_1" data-name="Ellipse 1" cx="1.299" cy="1.299" r="1.299" transform="translate(14.284 14.284)" fill="#0f9d58"/>
      <path id="Path_45" data-name="Path 45" d="M126.012,64.649a.649.649,0,0,0-.649-.649,11.608,11.608,0,0,0-8.278,3.437.65.65,0,0,0,.921.917,10.316,10.316,0,0,1,7.358-3.056A.649.649,0,0,0,126.012,64.649Z" transform="translate(-109.78 -60.104)" fill="#0f9d58"/>
    </g>
  </g>
</svg>
