<svg xmlns="http://www.w3.org/2000/svg" width="34.93" height="29.69" viewBox="0 0 34.93 29.69">
  <g id="Video_Photography" data-name="Video &amp; Photography" transform="translate(1 -37.4)">
    <g id="Group_4" data-name="Group 4" transform="translate(-1 37.4)">
      <g id="Group_3" data-name="Group 3">
        <path id="Path_30" data-name="Path 30" d="M160.829,173.934h-.078a8.15,8.15,0,0,0-.083,16.3h.083a8.15,8.15,0,0,0,.078-16.3Zm-3.95,13.956a5.364,5.364,0,0,0,3.559-2.9h1.209a4.891,4.891,0,0,1-1.19,4.068A6.934,6.934,0,0,1,156.878,187.89ZM164.8,176.4a5.677,5.677,0,0,0-3.752,2.771h-1.206a5.005,5.005,0,0,1,1.2-4.068A6.939,6.939,0,0,1,164.8,176.4Zm-6.111,2.9a2.228,2.228,0,0,0-1.095.884,4.273,4.273,0,0,1-1.561-3.247,6.979,6.979,0,0,1,3.493-1.734A5.948,5.948,0,0,0,158.692,179.3Zm-.27,3.538v-1.514s0,0,0-.007a.624.624,0,0,0,.038-.25,1.026,1.026,0,0,1,.951-.733h2.678a1.02,1.02,0,0,1,.99.99v1.461a.615.615,0,0,0-.034.294,1.026,1.026,0,0,1-.955.748H160.4a.507.507,0,0,0-.552,0h-.438A1.02,1.02,0,0,1,158.422,182.84Zm4.368,2.031a2.227,2.227,0,0,0,1.123-.905,4.813,4.813,0,0,1,1.546,3.267,6.978,6.978,0,0,1-3.494,1.73A6.068,6.068,0,0,0,162.79,184.871Zm.791-5.079a2.175,2.175,0,0,0-1.135-.588,4.587,4.587,0,0,1,3.5-1.775,6.99,6.99,0,0,1,1.576,2.951A5.557,5.557,0,0,0,163.581,179.792Zm-8.573-1.674a5.653,5.653,0,0,0,2.249,3.335v1.388a2.063,2.063,0,0,0,.071.537,4.822,4.822,0,0,1-3.557-.971c0-.107-.008-.215-.008-.323A6.935,6.935,0,0,1,155.008,178.118Zm-1,5.779a6.163,6.163,0,0,0,2.728.632,7.166,7.166,0,0,0,1.234-.108,2.166,2.166,0,0,0,1.131.55,4.144,4.144,0,0,1-3.413,1.887h-.023A7,7,0,0,1,154,183.9Zm12.466,2.183a5.908,5.908,0,0,0-2.228-3.385v-1.368a2.058,2.058,0,0,0-.056-.474,4.482,4.482,0,0,1,3.547,1.064c0,.055,0,.111,0,.167A6.936,6.936,0,0,1,166.471,186.08Z" transform="translate(-142.121 -164.618)" fill="#0f9d58"/>
        <path id="Path_31" data-name="Path 31" d="M221.449,72.7a.582.582,0,1,0-.582-.582A.55.55,0,0,0,221.449,72.7Z" transform="translate(-205.731 -69.205)" fill="#0f9d58"/>
        <path id="Path_32" data-name="Path 32" d="M221.449,98.3a.582.582,0,1,0-.582-.582A.55.55,0,0,0,221.449,98.3Z" transform="translate(-205.731 -93.059)" fill="#0f9d58"/>
        <path id="Path_33" data-name="Path 33" d="M247.049,72.7a.582.582,0,1,0-.582-.582A.55.55,0,0,0,247.049,72.7Z" transform="translate(-229.584 -69.205)" fill="#0f9d58"/>
        <path id="Path_34" data-name="Path 34" d="M247.049,98.3a.582.582,0,1,0-.582-.582A.55.55,0,0,0,247.049,98.3Z" transform="translate(-229.584 -93.059)" fill="#0f9d58"/>
        <path id="Path_35" data-name="Path 35" d="M272.649,72.7a.582.582,0,1,0-.582-.582A.55.55,0,0,0,272.649,72.7Z" transform="translate(-253.438 -69.205)" fill="#0f9d58"/>
        <path id="Path_36" data-name="Path 36" d="M272.649,98.3a.582.582,0,1,0-.582-.582A.55.55,0,0,0,272.649,98.3Z" transform="translate(-253.438 -93.059)" fill="#0f9d58"/>
        <path id="Path_37" data-name="Path 37" d="M298.249,72.7a.582.582,0,1,0-.582-.582A.55.55,0,0,0,298.249,72.7Z" transform="translate(-277.291 -69.205)" fill="#0f9d58"/>
        <path id="Path_38" data-name="Path 38" d="M298.249,98.3a.582.582,0,1,0-.582-.582A.55.55,0,0,0,298.249,98.3Z" transform="translate(-277.291 -93.059)" fill="#0f9d58"/>
        <path id="Path_39" data-name="Path 39" d="M30.262,42.64H22.869V39.729A2.336,2.336,0,0,0,20.54,37.4h-6.4a2.336,2.336,0,0,0-2.329,2.329V42.64H9.385a1.825,1.825,0,0,0,.094-.582,1.715,1.715,0,0,0-1.747-1.747H4.822a1.715,1.715,0,0,0-1.747,1.747,1.823,1.823,0,0,0,.1.593,4.787,4.787,0,0,0-4.165,4.5c0,.006,0,.012,0,.017,0,.08-.006.161-.006.242V64.937a2.187,2.187,0,0,0,2.154,2.154H31.776a2.187,2.187,0,0,0,2.154-2.154V46.307A3.652,3.652,0,0,0,30.262,42.64ZM4.822,41.475H7.733a.582.582,0,0,1,0,1.164H4.822a.582.582,0,0,1,0-1.164ZM1.154,65.926a.981.981,0,0,1-.99-.99V63.015H2.493a.582.582,0,0,0,0-1.164H.164V58.358H1.329a.582.582,0,1,0,0-1.164H.164V53.7H1.329a.582.582,0,1,0,0-1.164H.164V49.043H2.493a.582.582,0,0,0,0-1.164H.164v-.466a3.631,3.631,0,0,1,3.249-3.591,2.423,2.423,0,0,1,1.99,2.31,9.1,9.1,0,0,1-.64,3.318,13.8,13.8,0,0,0,0,10.828A9.1,9.1,0,0,1,5.4,63.6a2.336,2.336,0,0,1-2.329,2.329Zm31.554-.99a.981.981,0,0,1-.99.99H5.673a3.477,3.477,0,0,0,.9-2.329,9.159,9.159,0,0,0-.757-3.784,12.865,12.865,0,0,1,0-9.9,9.351,9.351,0,0,0,.757-3.784,3.477,3.477,0,0,0-.9-2.329h7.3V39.729a1.168,1.168,0,0,1,1.164-1.164h6.4A1.168,1.168,0,0,1,21.7,39.729V43.8h8.5a2.522,2.522,0,0,1,2.5,2.5V64.937Z" transform="translate(1 -37.4)" fill="#0f9d58"/>
        <path id="Path_40" data-name="Path 40" d="M128.946,139.8a10.479,10.479,0,1,0,10.479,10.479A10.51,10.51,0,0,0,128.946,139.8Zm0,19.794a9.315,9.315,0,1,1,9.315-9.315A9.342,9.342,0,0,1,128.946,159.594Z" transform="translate(-110.317 -132.814)" fill="#0f9d58"/>
        <path id="Path_41" data-name="Path 41" d="M357.982,89.765h4.657a.582.582,0,1,0,0-1.164h-4.657a.582.582,0,1,0,0,1.164Z" transform="translate(-332.949 -85.108)" fill="#0f9d58"/>
        <path id="Path_42" data-name="Path 42" d="M403.56,139.8H402.4a2.329,2.329,0,0,0,0,4.657h1.164a2.329,2.329,0,0,0,0-4.657Zm0,3.493H402.4a1.164,1.164,0,0,1,0-2.329h1.164a1.164,1.164,0,1,1,0,2.329Z" transform="translate(-372.705 -132.814)" fill="#0f9d58"/>
      </g>
    </g>
  </g>
</svg>
