<svg xmlns="http://www.w3.org/2000/svg" width="36.584" height="31.864" viewBox="0 0 36.584 31.864">
  <g id="Writing_Translation" data-name="Writing &amp; Translation" transform="translate(-8 -40)">
    <path id="Path_23" data-name="Path 23" d="M42.519,40H10.065A2.068,2.068,0,0,0,8,42.065V65.078a2.068,2.068,0,0,0,2.065,2.065H21.88l-.708,1.77H18.621a.59.59,0,0,0-.59.59v1.77a.59.59,0,0,0,.59.59H33.963a.59.59,0,0,0,.59-.59V69.5a.59.59,0,0,0-.59-.59H31.413l-.708-1.77H42.519a2.068,2.068,0,0,0,2.065-2.065V42.065A2.068,2.068,0,0,0,42.519,40ZM33.373,70.094v.59H19.211v-.59Zm-10.93-1.18.708-1.77h6.281l.708,1.77ZM43.4,65.078a.886.886,0,0,1-.885.885H10.065a.886.886,0,0,1-.885-.885v-.885H43.4Zm0-2.065H9.18V42.065a.886.886,0,0,1,.885-.885H42.519a.886.886,0,0,1,.885.885Z" fill="#0f9d58"/>
    <path id="Path_24" data-name="Path 24" d="M90.031,105.77H85.9v-1.18a.59.59,0,1,0-1.18,0v1.18H80.59a.59.59,0,0,0,0,1.18h2.381a7.789,7.789,0,0,0,1.544,4.206,4.1,4.1,0,0,1-2.744,1.1.59.59,0,1,0,0,1.18,5.264,5.264,0,0,0,3.54-1.42,5.264,5.264,0,0,0,3.54,1.42.59.59,0,0,0,0-1.18,4.1,4.1,0,0,1-2.744-1.1,7.789,7.789,0,0,0,1.544-4.206h2.381a.59.59,0,0,0,0-1.18Zm-4.721,4.487a6.666,6.666,0,0,1-1.156-3.307h2.313A6.666,6.666,0,0,1,85.311,110.257Z" transform="translate(-66.689 -59.279)" fill="#0f9d58"/>
    <path id="Path_25" data-name="Path 25" d="M316.094,176.391a.59.59,0,0,0-1.111,0l-2.95,8.261a.59.59,0,0,0,1.111.4l.914-2.559h2.962l.914,2.559a.59.59,0,1,0,1.111-.4Zm-1.615,4.919,1.059-2.966,1.059,2.966Z" transform="translate(-281.575 -125.968)" fill="#0f9d58"/>
    <path id="Path_26" data-name="Path 26" d="M68.1,72H58.065A2.068,2.068,0,0,0,56,74.065V84.1a2.068,2.068,0,0,0,2.065,2.065H68.1A2.068,2.068,0,0,0,70.162,84.1V74.065A2.068,2.068,0,0,0,68.1,72Zm.885,12.1a.886.886,0,0,1-.885.885H58.065a.886.886,0,0,1-.885-.885V74.065a.886.886,0,0,1,.885-.885H68.1a.886.886,0,0,1,.885.885Z" transform="translate(-44.46 -29.64)" fill="#0f9d58"/>
    <path id="Path_27" data-name="Path 27" d="M276.1,144H266.065A2.068,2.068,0,0,0,264,146.065V156.1a2.068,2.068,0,0,0,2.065,2.065H276.1a2.068,2.068,0,0,0,2.065-2.065V146.065A2.068,2.068,0,0,0,276.1,144Zm.885,12.1a.886.886,0,0,1-.885.885H266.065a.886.886,0,0,1-.885-.885V146.065a.886.886,0,0,1,.885-.885H276.1a.886.886,0,0,1,.885.885Z" transform="translate(-237.118 -96.329)" fill="#0f9d58"/>
    <path id="Path_28" data-name="Path 28" d="M273.943,76.548a.59.59,0,1,0,.835-.835l-.763-.763H277.9v1.18a.59.59,0,1,0,1.18,0V74.36a.59.59,0,0,0-.59-.59h-4.518l.74-.772a.59.59,0,1,0-.852-.817l-1.7,1.77a.59.59,0,0,0,.009.826Z" transform="translate(-244.528 -29.64)" fill="#0f9d58"/>
    <path id="Path_29" data-name="Path 29" d="M150.917,274.765l-1.7,1.77a.591.591,0,0,1-.853-.817l.74-.771H144.59a.59.59,0,0,1-.59-.59v-1.77a.59.59,0,1,1,1.18,0v1.18h3.886L148.3,273a.59.59,0,0,1,.835-.835l1.77,1.77a.591.591,0,0,1,.009.826Z" transform="translate(-125.969 -214.884)" fill="#0f9d58"/>
  </g>
</svg>
