<svg xmlns="http://www.w3.org/2000/svg" width="199.795" height="199.795" viewBox="0 0 199.795 199.795"><defs><style>.a{fill:#f83535;}.b{fill:#f9c5ac;}.c{fill:#3c9fda;}.d{fill:#86c4f3;}.e{fill:#efb29a;}.f{fill:#361d44;}.g{fill:#ededed;}</style></defs><path class="a" d="M199.795,99.9a99.482,99.482,0,0,1-21.884,62.4l0,0c-2.115,2.642-7.141,2.938-9.51,5.35C153.85,182.469,37.988,174.32,34.191,170.6c-.363-.355-4.943-.077-5.3-.44A99.9,99.9,0,1,1,199.795,99.9Z" transform="translate(0 0)"/><g transform="translate(28.888 0.015)"><path class="b" d="M210.884,418.328l-4.3,1.807a99.618,99.618,0,0,1-11.555,1.2q-2.295.105-4.612.105-1.838,0-3.656-.066a99.823,99.823,0,0,1-20.233-2.81q-1.071-.263-2.135-.55L148.44,380.043l39.413-16.553Z" transform="translate(-119.403 -221.662)"/><path class="c" d="M121.15,442.768q-1.071-.263-2.135-.55a99.413,99.413,0,0,1-30.219-13.9q-.732-.5-1.452-1.011a0,0,0,0,1,0,0,100.49,100.49,0,0,1-12.23-10.22c-.363-.355-.722-.714-1.081-1.077l30.492-12.827Z" transform="translate(-74.03 -245.864)"/><path class="d" d="M154.889,432.718a99.38,99.38,0,0,1-54.038-18.27l-3.812-9.081a10.964,10.964,0,0,1,5.861-14.356l19.2-8.062a10.966,10.966,0,0,1,14.356,5.865Z" transform="translate(-87.536 -233.004)"/><path class="c" d="M142.568,403.391a10.961,10.961,0,0,0-14.352-5.857l-19.2,8.062a10.962,10.962,0,0,0-6.72,9.865q-.732-.5-1.452-1.011a0,0,0,0,1,0,0l-3.813-9.073a10.969,10.969,0,0,1,5.865-14.36l19.2-8.062a10.976,10.976,0,0,1,14.36,5.865Z" transform="translate(-87.531 -233.007)"/><path class="e" d="M250.883,293.446l32.53-24.907-9.335-15.414a11.885,11.885,0,0,0-15.687-4.367l-14.28,7.492s-27.66,7.4-15.17,37.14" transform="translate(-166.516 -150.871)"/><path class="f" d="M0,0H23.717V52.266H0Z" transform="translate(68.33 104.151) rotate(-22.77)"/><circle class="f" cx="56.688" cy="56.688" r="56.688" transform="translate(4.602)"/><path class="g" d="M179.672,117.28A43.748,43.748,0,1,1,203.066,60a43.8,43.8,0,0,1-23.394,57.276Z" transform="translate(-101.441 -20.258)"/><path class="f" d="M208.39,100.473a3.4,3.4,0,0,0-1.816,4.447l11.308,26.923a3.4,3.4,0,1,0,6.264-2.631L212.837,102.29A3.4,3.4,0,0,0,208.39,100.473Z" transform="translate(-154.689 -61.119)"/><path class="f" d="M252.363,78.111l-7.4,3.108a3.4,3.4,0,0,0-1.814,4.453s4.24,10.042,5.491,13.021c1.525,3.632,5.537,13.089,5.537,13.089a3.4,3.4,0,0,0,4.443,1.805l.012-.005c.223-.095,5.49-2.331,7.582-3.253,7.714-3.4,10.5-12.555,6.633-21.77C268.779,78.873,260.547,74.674,252.363,78.111Zm11.111,26c-1,.44-2.789,1.209-4.37,1.884-1.308-3.086-3.244-7.657-4.2-9.935-.8-1.9-2.817-6.686-4.173-9.9l4.262-1.79c5.47-2.3,9.573,2.014,11.59,6.815C269.412,97.924,267.06,102.533,263.474,104.113Z" transform="translate(-176.992 -46.922)"/><path class="f" d="M158.191,132.753a10.109,10.109,0,0,0-13.826-11.34l-7.82,3.285a3.4,3.4,0,0,0-1.816,4.447l5.207,12.4.009.02,6.093,14.506a3.4,3.4,0,0,0,4.447,1.816l.014-.006s7.177-3.052,9.159-3.884a11.243,11.243,0,0,0-1.466-21.241ZM147,127.677a3.322,3.322,0,0,1,2.573,6.126c-.578.243-1.669.7-2.855,1.208l-1.83.769-2.576-6.134Zm10.03,20.054c-1.111.466-3.847,1.628-6.047,2.561l-3.462-8.242,1.831-.777,4.221-1.773a4.463,4.463,0,0,1,3.457,8.23Z" transform="translate(-110.88 -73.568)"/><path class="b" d="M306.118,330.767a99.718,99.718,0,0,1-73.4,37.387,20.742,20.742,0,0,1-6.119-8.144L211.731,324.6a18.866,18.866,0,0,1,10.076-24.674l54.429-22.859a9.913,9.913,0,0,1,12.85,4.8,9.663,9.663,0,0,1,.909,4.082,9.764,9.764,0,0,1-5.982,9.026c.176-.074.347-.14.523-.2s.355-.121.535-.172c.277-.082.55-.148.831-.207a9.768,9.768,0,0,1,11.648,9.237c.008,0,.008,0,0,.008a9.791,9.791,0,0,1-5.982,9.338,10.056,10.056,0,0,1,1.057-.375c.281-.086.554-.148.835-.207a9.764,9.764,0,0,1,5.67,18.582,9.7,9.7,0,0,1,6.985-.215Z" transform="translate(-157.099 -168.48)"/><g transform="translate(53.744 107.794)"><path class="e" d="M290.906,285.951a9.744,9.744,0,0,0-10.636-2.055l-68.514,28.776a18.793,18.793,0,0,1,10.964-12.748l54.427-22.859a9.914,9.914,0,0,1,12.852,4.8A9.7,9.7,0,0,1,290.906,285.951Z" transform="translate(-211.757 -276.273)"/><path class="e" d="M408.39,331.669a9.747,9.747,0,0,0-10.4-1.834l-.748.314a3.754,3.754,0,1,1-2.908-6.923l.517-.217c.176-.074.349-.14.524-.2s.356-.123.535-.173c.276-.083.553-.148.832-.207a9.776,9.776,0,0,1,11.65,9.241Z" transform="translate(-321.682 -304.305)"/><path class="e" d="M427.767,377.8a9.747,9.747,0,0,0-10.4-1.834l-.748.314a3.754,3.754,0,1,1-2.908-6.923l.517-.217a9.989,9.989,0,0,1,1.059-.373c.276-.083.552-.148.832-.207a9.776,9.776,0,0,1,11.65,9.24Z" transform="translate(-333.497 -332.437)"/><path class="e" d="M440.593,415.055l0,0a100.094,100.094,0,0,1-6.731,7.582,3.751,3.751,0,0,1-.769-7.149l.515-.219a10.367,10.367,0,0,1,1.061-.375c.273-.082.55-.144.831-.207a9.712,9.712,0,0,1,5.1.363Z" transform="translate(-345.315 -360.565)"/></g></g></svg>