<svg xmlns="http://www.w3.org/2000/svg" width="199.504" height="199.543" viewBox="0 0 199.504 199.543"><defs><style>.a{fill:#f83535;}.b{fill:#3d4159;}.c{fill:#f2f0ec;}.d{fill:#f74f4f;}.e{fill:#d8d5d0;}.f{fill:#2a2f4f;}.g{fill:#eab599;}.h{fill:#f6caae;}.i{fill:#66baed;}.j{fill:#2ba1cf;}</style></defs><path class="a" d="M199.5,99.752a99.8,99.8,0,0,1-146,88.413,97.119,97.119,0,0,1-13.4-8.456c-2.221-1.637-4.325-3.39-6.39-5.221A99.746,99.746,0,1,1,199.5,99.752Z"/><path class="b" d="M228.11,391.556v11.417a99.145,99.145,0,0,1-32.692,11.573c-2.494.429-5.066.74-7.637.974-1.6.156-3.2.234-4.832.312-1.325.039-2.65.078-3.974.078-2.961,0-5.923-.117-8.845-.39A99.629,99.629,0,0,1,129.8,402.973V391.556a37.1,37.1,0,0,1,27.471-35.809c.585-.156,1.169-.312,1.753-.429a32.8,32.8,0,0,1,4.832-.7q1.52-.117,3.039-.117h24.159a37.464,37.464,0,0,1,7.871.818,2.013,2.013,0,0,0,.429.078c.429.117.857.195,1.286.312h.039a37.068,37.068,0,0,1,27.432,35.848Z" transform="translate(-79.223 -216.367)"/><path class="c" d="M243.664,356.6l-.078.429-12.859,59.734c-2.922.273-5.845.39-8.845.39-2.961,0-5.923-.117-8.845-.39l-12.859-59.734-.078-.429Z" transform="translate(-122.13 -217.649)"/><path class="d" d="M250.372,388.8l-9.936,15.976L230.5,388.8" transform="translate(-140.684 -237.302)"/><path class="d" d="M250.792,454.87c-3.039.273-6.079.429-9.2.429s-6.157-.156-9.2-.429l9.2-35.77Z" transform="translate(-141.844 -255.795)"/><path class="e" d="M221.943,361.357l-16.677,9.274L200.2,347.018l10.365-6.118" transform="translate(-122.191 -208.066)"/><path class="e" d="M256,361.357l16.677,9.274,5.066-23.613L267.378,340.9" transform="translate(-156.248 -208.066)"/><path class="f" d="M295.485,357.228l-10.794,28.133h5.3l-11.222,27.354c-2.494.429-5.066.74-7.637.974-1.6.156-3.2.234-4.832.312l17.768-62.5Z" transform="translate(-162.535 -214.536)"/><path class="f" d="M170.5,357.838l10.793,28.133h-5.3l11.222,27.354c2.494.429,5.066.74,7.637.974,1.6.156,3.2.234,4.832.312L182.034,352.5Z" transform="translate(-104.064 -215.146)"/><path class="g" d="M248.519,317.8v16.249a13.225,13.225,0,0,1-9.313,12.625,12.925,12.925,0,0,1-3.9.585A13.221,13.221,0,0,1,222.1,334.049V317.8Z" transform="translate(-135.557 -193.967)"/><path class="h" d="M260.909,356.8v1.013a13.226,13.226,0,0,1-9.313,12.625,13.162,13.162,0,0,1-9.2-10.91c.9.039,1.753.078,2.65.078a45.331,45.331,0,0,0,7.326-.585A41.612,41.612,0,0,0,260.909,356.8Z" transform="translate(-147.947 -217.771)"/><path class="h" d="M124.326,230.213A12.354,12.354,0,0,1,114,242.37a10.815,10.815,0,0,1-1.987.156,12.313,12.313,0,0,1,0-24.626,11.385,11.385,0,0,1,1.987.156A12.354,12.354,0,0,1,124.326,230.213Z" transform="translate(-60.851 -132.994)"/><path class="g" d="M144.162,230.457a12.354,12.354,0,0,1-10.326,12.157,45.974,45.974,0,0,1,0-24.315A12.354,12.354,0,0,1,144.162,230.457Z" transform="translate(-80.687 -133.238)"/><path class="g" d="M128.806,242.6a4.4,4.4,0,1,1-4.4-4.4A4.424,4.424,0,0,1,128.806,242.6Z" transform="translate(-73.241 -145.384)"/><path class="h" d="M349.1,230.274a12.354,12.354,0,0,0,10.326,12.157,10.814,10.814,0,0,0,1.987.156,12.294,12.294,0,1,0,0-24.587,11.387,11.387,0,0,0-1.987.156A12.282,12.282,0,0,0,349.1,230.274Z" transform="translate(-213.071 -133.055)"/><path class="g" d="M349.1,230.457a12.354,12.354,0,0,0,10.326,12.157,45.974,45.974,0,0,0,0-24.315A12.354,12.354,0,0,0,349.1,230.457Z" transform="translate(-213.071 -133.238)"/><path class="g" d="M230.03,116.285V133.7a45.77,45.77,0,0,1-38.42,45.161c-.078,0-.156.039-.234.039a47.213,47.213,0,0,1-7.131.546A45.74,45.74,0,0,1,138.5,133.7V116.285A45.7,45.7,0,0,1,184.246,70.5h0a48.007,48.007,0,0,1,7.131.546A45.823,45.823,0,0,1,230.03,116.285Z" transform="translate(-84.533 -43.029)"/><path class="g" d="M378.106,242.6a4.4,4.4,0,1,1-4.4-4.4A4.424,4.424,0,0,1,378.106,242.6Z" transform="translate(-225.4 -145.384)"/><path class="h" d="M252.369,117.2v17.418a45.77,45.77,0,0,1-38.42,45.161c-.078,0-.156.039-.234.039a45.753,45.753,0,0,1-38.615-45.2V117.2A45.787,45.787,0,0,1,213.754,72,45.753,45.753,0,0,1,252.369,117.2Z" transform="translate(-106.871 -43.945)"/><path class="f" d="M229.969,89.761v17.846h-8.533V93.619L159.948,82.2l-13.015-2.416v27.821H138.4V89.761A36.851,36.851,0,0,1,175.222,52.9h17.846c.468,0,.974,0,1.442.039A36.83,36.83,0,0,1,229.969,89.761Z" transform="translate(-84.472 -32.287)"/><path class="b" d="M263.721,89.823v17.846h-8.533V93.68L193.7,82.263A36.826,36.826,0,0,1,228.3,53,36.824,36.824,0,0,1,263.721,89.823Z" transform="translate(-118.224 -32.348)"/><path class="i" d="M138.513,287.9l-4.091,5.338-11.183,3-6.585,1.753-5.143-4.754c-.156-.117-.273-.273-.429-.39-14.534-13.56-21.392-24.237-27.7-43.057-.078-.195-.117-.351-.195-.546L81,242.581l4.286-5.3,7.326-8.962,6.546-1.52,1.013,2.572,2.844,7.248,4.13,10.521-5.377,4.91-3.624,3.312c1.676,5.338,9.741,17.924,13.911,21.626l4.52-1.948,6.7-2.883,7.871,8.1,5.416,5.611h0Z" transform="translate(-49.438 -138.426)"/><path class="c" d="M179,343.3l-6.7,2.883,17.807,18.158L194.2,359Z" transform="translate(-105.162 -209.531)"/><path class="c" d="M125.334,247.14l-5.377,4.91L110.8,228.32l6.546-1.52Z" transform="translate(-67.626 -138.426)"/><path class="j" d="M123.239,312.655l-6.585,1.753-5.143-4.754c-.156-.117-.273-.273-.429-.39-14.534-13.56-21.392-24.237-27.7-43.057-.078-.195-.117-.351-.195-.546L81,259l4.286-5.3s1.364,36.043,37.953,58.955Z" transform="translate(-49.438 -154.844)"/><path class="g" d="M125.467,321.41l-6.2,6.2a8.277,8.277,0,0,1-5.962,2.455,8.191,8.191,0,0,1-4.013-1.013,8.787,8.787,0,0,1-1.987-1.481,8.443,8.443,0,0,1,0-11.962l6.2-6.2a8.443,8.443,0,0,1,11.962,0,9.1,9.1,0,0,1,1.481,1.987A8.524,8.524,0,0,1,125.467,321.41Z" transform="translate(-63.979 -187.33)"/><path class="h" d="M130.912,326.856l-6.2,6.2a8.277,8.277,0,0,1-5.962,2.455,8.191,8.191,0,0,1-4.013-1.013,8.482,8.482,0,0,1,1.481-9.975l6.2-6.2a8.482,8.482,0,0,1,9.975-1.481A8.524,8.524,0,0,1,130.912,326.856Z" transform="translate(-69.425 -192.775)"/><path class="f" d="M106.235,403.8a97.114,97.114,0,0,1-13.4-8.456c-2.221-1.637-4.325-3.39-6.39-5.221a96.38,96.38,0,0,1,6.2-36.823c1.792.662,3.585,1.364,5.377,2.026,3.858,1.442,7.715,2.922,11.573,4.364A77.578,77.578,0,0,0,106.235,403.8Z" transform="translate(-52.735 -215.634)"/><path class="b" d="M115.777,406.973a97.12,97.12,0,0,1-13.4-8.456,95.984,95.984,0,0,1,5.143-40.018c3.858,1.442,7.715,2.922,11.573,4.364A77.905,77.905,0,0,0,115.777,406.973Z" transform="translate(-62.277 -218.808)"/></svg>