<svg xmlns="http://www.w3.org/2000/svg" width="199" height="199" viewBox="0 0 199 199"><defs><style>.a{fill:#f83535;}.b{fill:#eeefee;}.c{fill:#fdcf84;}.d{fill:#f80;}.e{fill:#36c154;}.f{fill:#00a029;}.g{fill:#6b7bed;}.h{fill:#1725aa;}.i{fill:#280a2b;}</style></defs><g transform="translate(0 -0.17)"><g transform="translate(0 0.17)"><circle class="a" cx="99.5" cy="99.5" r="99.5"/></g><g transform="translate(42.225 31.728)"><path class="b" d="M247.9,254.7h6.5v57.673h-6.5Z" transform="translate(-193.74 -185.588)"/><path class="b" d="M139.2,340.571V319.044a2.534,2.534,0,0,1,2.544-2.544h89.3a2.534,2.534,0,0,1,2.544,2.544v21.527h-6.5V323.043H145.7v17.528Z" transform="translate(-128.942 -222.428)"/><path class="c" d="M344.889,353.2h0a13.513,13.513,0,0,1,13.489,13.489v.04a13.513,13.513,0,0,1-13.489,13.489h0A13.513,13.513,0,0,1,331.4,366.73v-.04A13.462,13.462,0,0,1,344.889,353.2Z" transform="translate(-243.517 -244.306)"/><path class="d" d="M350.374,362.4h0a9.756,9.756,0,0,1,9.774,9.774v.04a9.756,9.756,0,0,1-9.774,9.774h0a9.756,9.756,0,0,1-9.774-9.774v-.04A9.756,9.756,0,0,1,350.374,362.4Z" transform="translate(-249.001 -249.791)"/><path class="e" d="M236.089,353.2h0a13.513,13.513,0,0,1,13.489,13.489v.04a13.513,13.513,0,0,1-13.489,13.489h0A13.513,13.513,0,0,1,222.6,366.73v-.04A13.488,13.488,0,0,1,236.089,353.2Z" transform="translate(-178.658 -244.306)"/><path class="f" d="M241.574,362.4h0a9.756,9.756,0,0,1,9.774,9.774v.04a9.756,9.756,0,0,1-9.774,9.774h0a9.756,9.756,0,0,1-9.774-9.774v-.04A9.756,9.756,0,0,1,241.574,362.4Z" transform="translate(-184.143 -249.791)"/><path class="g" d="M127.289,353.2h0a13.513,13.513,0,0,1,13.489,13.489v.04a13.513,13.513,0,0,1-13.489,13.489h0A13.513,13.513,0,0,1,113.8,366.73v-.04A13.513,13.513,0,0,1,127.289,353.2Z" transform="translate(-113.8 -244.306)"/><path class="h" d="M132.774,362.4h0a9.756,9.756,0,0,1,9.774,9.774v.04a9.756,9.756,0,0,1-9.774,9.774h0A9.756,9.756,0,0,1,123,372.214v-.04A9.808,9.808,0,0,1,132.774,362.4Z" transform="translate(-119.284 -249.791)"/><path class="i" d="M236.448,138.688V127.5l-9.087-1.333a32.29,32.29,0,0,0-4.483-10.743l5.493-7.391-7.916-7.956-7.431,5.493a31.39,31.39,0,0,0-10.743-4.443L200.948,92H189.76l-1.333,9.087a32.207,32.207,0,0,0-10.743,4.443l-7.391-5.452-7.916,7.916,5.452,7.391a32.206,32.206,0,0,0-4.443,10.743L154.3,127.46v11.187l9.087,1.373a33.816,33.816,0,0,0,4.443,10.743l-5.452,7.391,7.916,7.916,7.391-5.493a32.644,32.644,0,0,0,10.743,4.483l1.333,9.087h11.187l1.373-9.087a33.005,33.005,0,0,0,10.743-4.483l7.431,5.493,7.916-7.916-5.493-7.391a32.29,32.29,0,0,0,4.483-10.743Zm-41.074,13.489a19.1,19.1,0,1,1,19.1-19.1,19.115,19.115,0,0,1-19.1,19.1Z" transform="translate(-137.943 -92)"/></g></g></svg>