<svg xmlns="http://www.w3.org/2000/svg" width="199" height="199" viewBox="0 0 199 199"><defs><style>.a{fill:#f83535;}.b{fill:#84dbff;}.c{fill:#0458ab;}.d{fill:#eab599;}.e{fill:#acb3ba;}.f{fill:#e6e9ee;}.g{fill:#f6caae;}.h{fill:#324a5e;}.i{fill:#fff;}</style></defs><circle class="a" cx="99.5" cy="99.5" r="99.5"/><path class="b" d="M234.972,171.9l5.165-9.392-.939-16.592L224.485,142l-13.148,3.757s-4.539,6.1-5.635,7.513c-1.1,1.252,2.818,14.088,3.6,18.47h25.671Z" transform="translate(-125.089 -86.432)"/><path class="c" d="M241.078,178.958H248.9l-3.444-18.783,5.322-6.574H239.2l5.322,6.574Z" transform="translate(-145.596 -93.493)"/><path class="d" d="M249.914,115.688c0,5.322-3.287,6.1-7.357,6.1s-7.357-.783-7.357-6.1,3.287-14.088,7.357-14.088C246.627,101.757,249.914,110.366,249.914,115.688Z" transform="translate(-143.161 -61.842)"/><path class="e" d="M184.47,182.853c3.757-6.261-.783-19.879-2.661-19.879-2.035,0-6.731-2.974-6.731-2.974s-1.252,11.74-1.878,22.7h11.27Z" transform="translate(-105.423 -97.389)"/><path class="f" d="M204.923,167.028A164.019,164.019,0,0,1,200.071,134s-2.5,5.009-22.071,10.331a193.691,193.691,0,0,1,6.418,22.7Z" transform="translate(-108.345 -81.563)"/><g transform="translate(86.247 51.185)"><path class="e" d="M228.7,165.08h2.974c-2.974-12.679-6.574-29.9-5.009-34.28a23.8,23.8,0,0,0-4.852,7.513l2.035,2.035L220.4,142.07S224.626,154.436,228.7,165.08Z" transform="translate(-220.4 -130.8)"/><path class="e" d="M314.981,182.853C314.355,171.74,313.1,160,313.1,160s-4.7,2.974-6.731,2.974-6.418,13.618-2.661,19.879Z" transform="translate(-270.214 -148.573)"/></g><path class="f" d="M281.705,167.028a193.686,193.686,0,0,1,6.418-22.7C268.557,139.009,266.052,134,266.052,134a176.145,176.145,0,0,1-4.852,33.028Z" transform="translate(-158.987 -81.563)"/><path class="e" d="M258.8,165.08h2.974c4.07-10.487,8.3-23.01,8.3-23.01l-3.444-1.722,2.035-2.035a23.8,23.8,0,0,0-4.852-7.513C265.374,135.026,261.774,152.4,258.8,165.08Z" transform="translate(-157.526 -79.615)"/><g transform="translate(83.181 22.54)"><ellipse class="g" cx="12.522" cy="15.809" rx="12.522" ry="15.809" transform="translate(3.692)"/><ellipse class="g" cx="4.383" cy="2.348" rx="4.383" ry="2.348" transform="translate(25.124 18.095) rotate(-71.174)"/><ellipse class="g" cx="4.383" cy="2.348" rx="4.383" ry="2.348" transform="translate(4.445 9.954) rotate(71.174)"/></g><path class="h" d="M221.189,67.673c-6.418-13.618,2.5-18,2.5-18l-4.226,2.348c12.835-15.5,22.071-2.818,22.071-2.818,8.922,6.887,3.131,17.375,3.131,17.375s-1.1-7.67-4.852-10.957c0,0-4.539,5.165-15.183.47a12.747,12.747,0,0,0-1.565,8.766s-1.1-.626-1.409-3.287c.157,0-1.1,3.287-.47,6.1Z" transform="translate(-133.219 -26.975)"/><g transform="translate(91.29 51.028)"><path class="i" d="M234.661,130.4s1.1,6.261,6.731,9.079c0,0-3.913,2.974-4.539,5.479C236.853,144.957,230.592,135.878,234.661,130.4Z" transform="translate(-233.286 -130.4)"/><path class="i" d="M260.731,130.4s-1.1,6.261-6.731,9.079c0,0,3.913,2.974,4.539,5.479C258.539,144.957,264.8,135.878,260.731,130.4Z" transform="translate(-245.894 -130.4)"/></g><g transform="translate(34.692 118.222)"><path class="i" d="M206.067,372a5,5,0,0,1-.157,1.1,9.751,9.751,0,0,0,9.7,10.8h18a9.751,9.751,0,0,0,9.7-10.8,3.821,3.821,0,0,0-.157-1.1c-7.826-2.035-11.27-4.07-12.679-5.322-.626-.783-1.1-1.409-1.409-1.722a10.589,10.589,0,0,0,3.287-6.261,3.409,3.409,0,0,0,1.409-2.035c.47-1.409.313-2.817-.47-2.974a7.463,7.463,0,0,0-3.131-6.887s-5.792-7.983-13.775,1.722l2.5-1.409a6.415,6.415,0,0,0-2.818,6.418h-.157c-.783.313-.939,1.565-.47,2.974a4.233,4.233,0,0,0,1.409,2.035,9.435,9.435,0,0,0,3.287,6.261c-.313.313-.783.939-1.409,1.722C217.337,367.928,214.05,369.963,206.067,372Z" transform="translate(-159.989 -327.43)"/><path class="i" d="M323.667,330.4a5,5,0,0,1-.157,1.1,9.751,9.751,0,0,0,9.7,10.8h18a9.751,9.751,0,0,0,9.7-10.8,3.822,3.822,0,0,0-.157-1.1c-7.826-2.035-11.27-4.07-12.679-5.322-.626-.783-1.1-1.409-1.409-1.722a10.589,10.589,0,0,0,3.287-6.261,3.409,3.409,0,0,0,1.409-2.035c.47-1.409.313-2.818-.47-2.974a7.464,7.464,0,0,0-3.131-6.887s-5.792-7.983-13.775,1.722l2.5-1.409a6.415,6.415,0,0,0-2.818,6.418h-.156c-.783.313-.939,1.565-.47,2.974a4.233,4.233,0,0,0,1.409,2.035,9.435,9.435,0,0,0,3.287,6.261c-.313.313-.783.939-1.409,1.722C334.937,326.328,331.493,328.363,323.667,330.4Z" transform="translate(-231.57 -302.109)"/><path class="i" d="M88.867,330.4a5,5,0,0,1-.157,1.1,9.751,9.751,0,0,0,9.7,10.8h18a9.751,9.751,0,0,0,9.7-10.8,3.822,3.822,0,0,0-.157-1.1c-7.826-2.035-11.27-4.07-12.835-5.322-.626-.783-1.1-1.409-1.409-1.722a10.589,10.589,0,0,0,3.287-6.261,3.409,3.409,0,0,0,1.409-2.035c.47-1.409.313-2.818-.47-2.974a7.464,7.464,0,0,0-3.131-6.887s-5.792-7.983-13.775,1.722l2.5-1.409a6.415,6.415,0,0,0-2.818,6.418h-.157c-.783.313-.939,1.565-.47,2.974a4.233,4.233,0,0,0,1.409,2.035A9.435,9.435,0,0,0,102.8,323.2c-.313.313-.783.939-1.409,1.722C100.137,326.328,96.693,328.363,88.867,330.4Z" transform="translate(-88.652 -302.109)"/></g><path class="h" d="M233.41,253.044l-4.852-7.357a1.8,1.8,0,0,0-1.722-.939H199.286v-7.513a2.035,2.035,0,0,0-4.07,0v7.513H167.511a2.163,2.163,0,0,0-1.722.939l-4.7,7.357a2.039,2.039,0,0,0,.626,2.817,2.9,2.9,0,0,0,1.1.313,2.163,2.163,0,0,0,1.722-.939l4.07-6.418h26.61v19.253a2.035,2.035,0,0,0,4.07,0v-19.41H225.9l4.07,6.418a1.964,1.964,0,0,0,1.722.939,2.9,2.9,0,0,0,1.1-.313A1.96,1.96,0,0,0,233.41,253.044Z" transform="translate(-97.856 -143.161)"/></svg>