<svg xmlns="http://www.w3.org/2000/svg" width="199" height="199" viewBox="0 0 199 199"><defs><style>.a{fill:#f83535;}.b{fill:#d8f1fb;}.c{fill:#bceaf9;}.d{fill:#fff;}.e{fill:#ecf9fb;}.f{fill:#192f7f;}.g{fill:#6905c1;}.h{fill:#6abfea;}.i{fill:#081e5b;}</style></defs><g transform="translate(0.313)"><circle class="a" cx="99.5" cy="99.5" r="99.5" transform="translate(-0.313)"/><g transform="translate(42.075 19.037)"><g transform="translate(0 10.762)"><path class="b" d="M143,110.6H246.187V238.651H143Z" transform="translate(-129.519 -97.43)"/><g transform="translate(51.594 13.17)"><path class="c" d="M241.1,110.6h65.075V238.651H241.1Z" transform="translate(-241.1 -110.6)"/></g><path class="d" d="M108.3,76.7H211.526V204.751H108.3Z" transform="translate(-108.3 -76.7)"/><path class="e" d="M241.1,76.7h51.632V204.751H241.1Z" transform="translate(-189.506 -76.7)"/></g><g transform="translate(16.278 49.573)"><path class="f" d="M150.2,176.6h35.354v11.655H150.2Z" transform="translate(-150.2 -176.6)"/></g><g transform="translate(16.278 74.904)"><path class="f" d="M150.2,241.8h70.708v11.655H150.2V241.8Z" transform="translate(-150.2 -241.8)"/></g><g transform="translate(16.278 100.234)"><path class="f" d="M150.2,307h70.708v11.655H150.2V307Z" transform="translate(-150.2 -307)"/></g><g transform="translate(18.221)"><path class="g" d="M155.2,77.477V55.255a6.255,6.255,0,1,1,12.51,0V77.439a6.255,6.255,0,0,1-12.51.039Z" transform="translate(-155.2 -49)"/></g><path class="h" d="M274.4,130.8h22.417v29.449H274.4Z" transform="translate(-209.869 -99.02)"/><g transform="translate(51.594 74.904)"><path class="i" d="M241.1,241.8h35.354v11.655H241.1Z" transform="translate(-241.1 -241.8)"/></g><g transform="translate(51.594 100.234)"><path class="i" d="M241.1,307h35.354v11.655H241.1Z" transform="translate(-241.1 -307)"/></g></g></g></svg>