<svg xmlns="http://www.w3.org/2000/svg" width="199.528" height="199.528" viewBox="0 0 199.528 199.528"><defs><style>.a{fill:#f83535;}.b{fill:#464646;}.c{fill:#238cf8;}.d{fill:#0768dd;}.e{fill:#eae1dc;}.f{fill:#fff;}.g{fill:#ffc473;}.h{fill:#ffd097;}.i{fill:#44344e;}.j{fill:#ada19c;}.k{fill:#361d44;}</style></defs><g transform="translate(0)"><path class="a" d="M199.528,99.764a99.335,99.335,0,0,1-9.166,41.819s-50.435,30.644-90.6,30.644-90.6-30.644-90.6-30.644A99.773,99.773,0,1,1,199.528,99.764Z" transform="translate(0)"/></g><g transform="translate(9.166 22.833)"><path class="b" d="M162.838,96.632c4.482-18.062-2.222-27.786-10.046-32.993a30.372,30.372,0,0,0-33.537,0c-7.824,5.208-14.527,14.931-10.046,32.993L106.79,135.1h58.468Z" transform="translate(-74.339 -58.59)"/><g transform="translate(16.514 7.702)"><path class="c" d="M124.609,237.847l-13.542,13.078L98.119,237.847,76.587,242.78A13.766,13.766,0,0,0,65.9,256.2v31.6h90.938V256.2A13.767,13.767,0,0,0,146.14,242.78Z" transform="translate(-65.895 -175.692)"/><g transform="translate(45.171 62.155)"><path class="d" d="M227.573,256.2v31.6H181.807V250.926l13.386-12.839.156-.239,21.533,4.931A13.767,13.767,0,0,1,227.573,256.2Z" transform="translate(-181.807 -237.848)"/></g><g transform="translate(45.171 96.927)"><path class="e" d="M181.807,327.073h47.527v15.181H181.807Z" transform="translate(-181.807 -327.073)"/></g><path class="f" d="M323.8,274.543H265.776A9.805,9.805,0,0,1,256,264.766V225.9a9.805,9.805,0,0,1,9.776-9.777H323.8a9.805,9.805,0,0,1,9.776,9.777v38.865A9.805,9.805,0,0,1,323.8,274.543Z" transform="translate(-181.915 -162.435)"/><path class="e" d="M394.314,225.9v38.861a9.805,9.805,0,0,1-9.774,9.778h-29.01V216.127h29.01a9.805,9.805,0,0,1,9.774,9.778Z" transform="translate(-242.659 -162.436)"/><g transform="translate(15.937)"><path class="g" d="M175.046,201.786v14.053l-13.516,16.2-12.948-16.2V201.786Z" transform="translate(-132.296 -153.684)"/><path class="h" d="M161.306,102.439a25.016,25.016,0,0,0-50,0,5.554,5.554,0,0,0-4.488,6.036l.484,4.464a5.555,5.555,0,0,0,6.1,4.91l.521-.057c6.2,16.139,16.206,20.294,22.378,21.238,6.173-.944,16.178-5.1,22.378-21.238l.521.057a5.555,5.555,0,0,0,6.1-4.91l.484-4.464A5.553,5.553,0,0,0,161.306,102.439Z" transform="translate(-106.789 -78.354)"/></g></g><path class="i" d="M204.717,363.31a99.8,99.8,0,0,1-181.2,0Z" transform="translate(-23.52 -244.56)"/><circle class="e" cx="9.384" cy="9.384" r="9.384" transform="translate(118.102 97.635) rotate(-76.7)"/><path class="j" d="M364.915,276.381a9.386,9.386,0,0,1-9.384,9.384V267A9.386,9.386,0,0,1,364.915,276.381Z" transform="translate(-226.145 -185.78)"/><path class="b" d="M163.831,76.816a20.01,20.01,0,0,0-7.173-6.03,29.476,29.476,0,0,0-27.407,0,20.016,20.016,0,0,0-7.173,6.03c-6.04,8.692-4.135,18.956-4.135,18.956C134.658,98.083,142.955,84.4,142.955,84.4s8.3,13.685,25.011,11.374C167.966,95.772,169.871,85.508,163.831,76.816Z" transform="translate(-80.972 -63.971)"/></g><path class="k" d="M346.6,363.31A99.775,99.775,0,0,1,256,421.255V363.31Z" transform="translate(-156.236 -221.727)"/></svg>