<svg xmlns="http://www.w3.org/2000/svg" width="199" height="199" viewBox="0 0 199 199"><defs><style>.a{fill:#f83535;}.b{fill:#eef;}.c{fill:#ffdd8d;}.d{fill:#ffc987;}.e{fill:#ffe2b8;}.f{fill:#ffaf10;}.g{fill:#ff9518;}.h{fill:#ef8318;}.i{fill:#db722c;}.j{fill:#aec1ed;}.k{fill:#445ea0;}</style></defs><g transform="translate(-11 -22.084)"><circle class="a" cx="99.5" cy="99.5" r="99.5" transform="translate(11 22.084)"/><rect class="b" width="57" height="64" rx="6" transform="translate(82 61.084)"/><path class="c" d="M234.722,331.111a.406.406,0,0,0,.4.334h33.571a.405.405,0,0,0,.287-.119l13.087-13.087a5.619,5.619,0,0,1,2.293-1.391,6.109,6.109,0,0,0-8.451.152l-11.183,11.183H234.189Z" transform="translate(-132.504 -174.093)"/><path class="d" d="M235.913,334.875a2.786,2.786,0,0,0,2.741,2.288H272.01a2.768,2.768,0,0,0,1.971-.817l15.441-15.441a6.676,6.676,0,0,1,1.954-1.351l-.218-.217a6.113,6.113,0,0,0-8.619,0l-13.087,13.087H235.467Z" transform="translate(-133.262 -175.48)"/><path class="e" d="M265.765,307.373l-1.548-1.548a7.161,7.161,0,0,0-10.1,0l-15.441,15.441a2.378,2.378,0,0,1-1.683.7H203.639a2.38,2.38,0,0,1-2.342-1.955l-1.471-8.091a2.38,2.38,0,0,1,2.342-2.806h14.06a7.149,7.149,0,0,0,7.141-7.141v-2.189a7.149,7.149,0,0,0-7.141-7.141H183.3a7.118,7.118,0,0,0-6.777,4.9c-.01.03-.024.058-.035.087v40.808h65.191a7.115,7.115,0,0,0,3.42-.883c.032-.017.065-.035.1-.051a7.03,7.03,0,0,0,1.88-1.339l18.689-18.689a7.151,7.151,0,0,0,0-10.1Z" transform="translate(-98.247 -160.686)"/><path class="d" d="M216.227,292.643H183.3a7.118,7.118,0,0,0-6.777,4.9c-.01.03-.024.058-.035.087v6.946a7.088,7.088,0,0,1,1.221-.361,2.381,2.381,0,0,0,1.794-1.589,7.119,7.119,0,0,1,6.777-4.9h32.928a7.094,7.094,0,0,1,4.123,1.321A7.15,7.15,0,0,0,216.227,292.643Z" transform="translate(-98.246 -160.687)"/><path class="f" d="M56.051,281.424H11.434a99,99,0,0,0,16.851,49.835H56.051Z" transform="translate(-0.258 -154.027)"/><path class="g" d="M122.275,328.922a2.038,2.038,0,0,1-2.032-2.032V270.983a2.038,2.038,0,0,1,2.032-2.032h19.2a2.038,2.038,0,0,1,2.032,2.032V326.89a2.038,2.038,0,0,1-2.032,2.032Z" transform="translate(-64.856 -146.622)"/><path class="h" d="M128.305,326.89V270.983a2.038,2.038,0,0,1,2.032-2.032h-8.062a2.038,2.038,0,0,0-2.032,2.032V326.89a2.038,2.038,0,0,0,2.032,2.032h8.062A2.038,2.038,0,0,1,128.305,326.89Z" transform="translate(-64.856 -146.622)"/><circle class="i" cx="5.033" cy="5.033" r="5.033" transform="translate(61.982 165.372)"/><path class="j" d="M49.708,151.9V92.478a2.038,2.038,0,0,1,2.032-2.032H43.678a2.038,2.038,0,0,0-2.032,2.032V151.9a2.038,2.038,0,0,0,2.032,2.032H51.74A2.038,2.038,0,0,1,49.708,151.9Z" transform="translate(40.722 -29.269)"/><g transform="translate(94.302 76.617)"><path class="k" d="M102.4,121.447H74.065a3.047,3.047,0,1,0,0,6.095H102.4v-6.095Z" transform="translate(-71.018 -121.447)"/><path class="k" d="M102.4,146.465H74.065a3.047,3.047,0,1,0,0,6.095H102.4v-6.095Z" transform="translate(-71.018 -136.3)"/><path class="k" d="M102.4,171.482H74.065a3.047,3.047,0,1,0,0,6.095H102.4v-6.095Z" transform="translate(-71.018 -151.152)"/><path class="k" d="M89.758,202.593H74.065a3.047,3.047,0,1,1,0-6.095H89.758a3.047,3.047,0,0,1,0,6.095Z" transform="translate(-71.018 -166.004)"/></g><rect class="b" width="57" height="63" rx="6" transform="translate(105 47.084)"/><path class="j" d="M49.708,151.9V92.478a2.038,2.038,0,0,1,2.032-2.032H43.678a2.038,2.038,0,0,0-2.032,2.032V151.9a2.038,2.038,0,0,0,2.032,2.032H51.74A2.038,2.038,0,0,1,49.708,151.9Z" transform="translate(63.475 -43.897)"/><g transform="translate(117.056 59.146)"><path class="k" d="M102.4,121.447H74.065a3.047,3.047,0,1,0,0,6.095H102.4v-6.095Z" transform="translate(-71.018 -121.447)"/><path class="k" d="M102.4,146.465H74.065a3.047,3.047,0,1,0,0,6.095H102.4v-6.095Z" transform="translate(-71.018 -136.3)"/><path class="k" d="M102.4,171.482H74.065a3.047,3.047,0,1,0,0,6.095H102.4v-6.095Z" transform="translate(-71.018 -151.152)"/><path class="k" d="M89.758,202.593H74.065a3.047,3.047,0,1,1,0-6.095H89.758a3.047,3.047,0,0,1,0,6.095Z" transform="translate(-71.018 -166.004)"/></g><path class="j" d="M3,0H54a0,0,0,0,1,0,0V3a3,3,0,0,1-3,3H3A3,3,0,0,1,0,3V3A3,3,0,0,1,3,0Z" transform="translate(108 104.084)"/></g></svg>