<svg xmlns="http://www.w3.org/2000/svg" width="30.004" height="30" viewBox="0 0 30.004 30">
  <g id="Layer_15" data-name="Layer 15" transform="translate(-1.998 -1.908)">
    <path id="Path_50" data-name="Path 50" d="M31.642,4.485a1.5,1.5,0,0,0-.08-2.037l-.1-.1a1.506,1.506,0,0,0-2.037-.075L26.165,5.1A14.972,14.972,0,0,0,4.231,24.786a43.373,43.373,0,0,0-1.887,6.181.5.5,0,0,0,.489.609.428.428,0,0,0,.11-.01,43.373,43.373,0,0,0,6.181-1.887A14.974,14.974,0,0,0,28.806,7.745ZM30.079,3.027a.5.5,0,0,1,.679.025l.1.1a.506.506,0,0,1,.03.679L14.806,22.325h0l-1.757,2.022-3.48-3.48,2.022-1.757L19.9,11.875s0,0,.01,0ZM22.47,16.932a5.5,5.5,0,0,1-5.492,5.492,5.692,5.692,0,0,1-.879-.07l6.121-7.04A5.527,5.527,0,0,1,22.47,16.932Zm-9.4,9.556a.5.5,0,0,1-.7,0L7.421,21.546a.5.5,0,1,1,.7-.7l4.943,4.943a.5.5,0,0,1,0,.7Zm-1.583-9.556A5.475,5.475,0,0,1,18.6,11.69l-7.04,6.121a5.692,5.692,0,0,1-.07-.879ZM3,16.932A13.964,13.964,0,0,1,25.391,5.783l-5.937,5.158A6.48,6.48,0,0,0,10.7,18.56l-1.842,1.6-.02-.025A1.5,1.5,0,0,0,6.593,22.1a4,4,0,0,0-1.288.854,3.64,3.64,0,0,0-.549.759A13.922,13.922,0,0,1,3,16.932ZM3.507,30.4c.519-2.087,1.593-5.832,2.5-6.735A2.889,2.889,0,0,1,7.356,22.9l3.655,3.655a2.889,2.889,0,0,1-.769,1.348c-.9.909-4.648,1.982-6.735,2.5ZM30.958,16.932A13.98,13.98,0,0,1,10.192,29.155a3.64,3.64,0,0,0,.759-.549,4,4,0,0,0,.854-1.288,1.5,1.5,0,0,0,1.972-2.242l-.025-.02,1.6-1.842a6.476,6.476,0,0,0,7.619-8.757l5.158-5.937a13.974,13.974,0,0,1,2.831,8.413Z" transform="translate(0)" fill="#0f9d58"/>
    <path id="Path_51" data-name="Path 51" d="M12.012,50.982A13.991,13.991,0,0,1,8.661,52.3a.5.5,0,1,0,.292.957,14.712,14.712,0,0,0,3.724-1.524.5.5,0,0,0-.664-.745Z" transform="translate(-3.158 -24.513)" fill="#0f9d58"/>
    <path id="Path_52" data-name="Path 52" d="M29.5,10.993A2.5,2.5,0,1,0,27,8.5a2.5,2.5,0,0,0,2.5,2.5ZM29.5,7A1.5,1.5,0,1,1,28,8.5,1.5,1.5,0,0,1,29.5,7Z" transform="translate(-12.519 -2.049)" fill="#0f9d58"/>
    <path id="Path_53" data-name="Path 53" d="M50.5,31.993A2.5,2.5,0,1,0,48,29.5a2.5,2.5,0,0,0,2.5,2.5ZM50.5,28A1.5,1.5,0,1,1,49,29.5,1.5,1.5,0,0,1,50.5,28Z" transform="translate(-23.034 -12.564)" fill="#0f9d58"/>
    <path id="Path_54" data-name="Path 54" d="M42.577,46.111a2.49,2.49,0,1,0-.734-1.765,2.5,2.5,0,0,0,.734,1.765Zm.706-2.824a1.5,1.5,0,1,1,0,2.118,1.5,1.5,0,0,1,0-2.118Z" transform="translate(-19.951 -19.999)" fill="#0f9d58"/>
    <path id="Path_55" data-name="Path 55" d="M29.5,48a2.5,2.5,0,1,0,2.5,2.5A2.5,2.5,0,0,0,29.5,48Zm0,3.994a1.5,1.5,0,1,1,1.5-1.5A1.5,1.5,0,0,1,29.5,51.994Z" transform="translate(-12.519 -23.079)" fill="#0f9d58"/>
    <path id="Path_56" data-name="Path 56" d="M10.993,29.5a2.5,2.5,0,1,0-2.5,2.5,2.5,2.5,0,0,0,2.5-2.5ZM7,29.5a1.5,1.5,0,1,1,1.5,1.5A1.5,1.5,0,0,1,7,29.5Z" transform="translate(-2.004 -12.564)" fill="#0f9d58"/>
    <path id="Path_57" data-name="Path 57" d="M14.647,17.144a2.5,2.5,0,1,0-1.765-.731,2.5,2.5,0,0,0,1.765.731Zm-1.059-3.556a1.5,1.5,0,1,1,2.118,2.118,1.534,1.534,0,0,1-2.118,0,1.5,1.5,0,0,1,0-2.118Z" transform="translate(-5.084 -5.129)" fill="#0f9d58"/>
  </g>
</svg>
