<svg xmlns="http://www.w3.org/2000/svg" width="35.839" height="33.45" viewBox="0 0 35.839 33.45">
  <g id="Digital_Marketing" data-name="Digital Marketing" transform="translate(0 -15.999)">
    <g id="Group_1" data-name="Group 1" transform="translate(0 15.999)">
      <path id="Path_1" data-name="Path 1" d="M35.242,44.67h-.6v-21.5a2.389,2.389,0,0,0-2.389-2.389H26.879V16.6a.6.6,0,0,0-.707-.587l-3.584.672-.6.112-5.321,1H13.141a1.2,1.2,0,0,0-1.195,1.195,2.986,2.986,0,0,0-2.733,1.792H3.584a2.389,2.389,0,0,0-2.389,2.389v21.5H.6a.6.6,0,0,0-.6.6v1.792a2.389,2.389,0,0,0,2.389,2.389H33.45a2.389,2.389,0,0,0,2.389-2.389V45.267A.6.6,0,0,0,35.242,44.67ZM25.685,17.316v9.315L17.322,25.06V18.884ZM16.127,29.737H14.336V26.153h1.792Zm-1.792,1.195h1.792v.9a.9.9,0,0,1-1.792,0Zm2.987-4.659,1.195.224v.851H17.322Zm-4.181-7.287h2.987v5.973H13.141ZM11.946,20.18v3.584a1.792,1.792,0,1,1,0-3.584ZM2.389,23.167a1.2,1.2,0,0,1,1.195-1.195H8.96a2.99,2.99,0,0,0,2.987,2.987,1.2,1.2,0,0,0,1.195,1.195v5.674a2.091,2.091,0,0,0,4.181,0V28.543h1.792a.6.6,0,0,0,.6-.6V26.724l6.461,1.211a.617.617,0,0,0,.11.01.6.6,0,0,0,.6-.6V21.972h5.376a1.2,1.2,0,0,1,1.195,1.195v21.5H23.3a.6.6,0,0,0-.422.174l-1.02,1.02H13.986l-1.02-1.02a.6.6,0,0,0-.422-.174H2.389ZM34.644,47.059a1.2,1.2,0,0,1-1.195,1.195H2.389a1.2,1.2,0,0,1-1.195-1.195V45.865H12.3l1.02,1.02a.6.6,0,0,0,.422.175H22.1a.6.6,0,0,0,.422-.175l1.02-1.02h11.1Z" transform="translate(0 -15.999)" fill="#0f9d58"/>
      <path id="Path_2" data-name="Path 2" d="M83.476,137.919V120.6a.6.6,0,0,0-.6-.6H80.49v1.195h1.792v16.127H57.195V121.195h2.987V120H56.6a.6.6,0,0,0-.6.6v17.322a.6.6,0,0,0,.6.6H82.879A.6.6,0,0,0,83.476,137.919Z" transform="translate(-51.819 -112.235)" fill="#0f9d58"/>
      <path id="Path_3" data-name="Path 3" d="M232,384h1.195v1.195H232Z" transform="translate(-214.678 -356.523)" fill="#0f9d58"/>
    </g>
    <g id="Group_2" data-name="Group 2" transform="translate(7.168 35.71)">
      <path id="Path_4" data-name="Path 4" d="M112,280h1.195v1.195H112Z" transform="translate(-110.805 -280)" fill="#0f9d58"/>
      <path id="Path_5" data-name="Path 5" d="M144,280h17.919v1.195H144Z" transform="translate(-140.416 -280)" fill="#0f9d58"/>
      <path id="Path_6" data-name="Path 6" d="M96,312h19.711v1.195H96Z" transform="translate(-96 -309.611)" fill="#0f9d58"/>
    </g>
  </g>
</svg>
