<svg id="Education_Training" data-name="Education &amp; Training" xmlns="http://www.w3.org/2000/svg" width="34.516" height="33.365" viewBox="0 0 34.516 33.365">
  <path id="Path_9" data-name="Path 9" d="M22.355,18.355a.579.579,0,0,1-.245-.055L12.33,13.7a.576.576,0,0,1,0-1.041l9.779-4.6a.575.575,0,0,1,.49,0l9.779,4.6a.576.576,0,0,1,0,1.041L22.6,18.3A.579.579,0,0,1,22.355,18.355Zm-8.428-5.177,8.428,3.966,8.428-3.966L22.355,9.211Z" transform="translate(-5.097 -3.398)" fill="#0f9d58"/>
  <path id="Path_10" data-name="Path 10" d="M24.478,27.354a.576.576,0,0,1-.257-.06l-6.9-3.452A.576.576,0,0,1,17,23.327v-4.4a.575.575,0,0,1,.82-.521l6.659,3.133,6.658-3.133a.576.576,0,0,1,.82.521v4.4a.576.576,0,0,1-.318.515l-6.9,3.452A.576.576,0,0,1,24.478,27.354Zm-6.328-4.382,6.328,3.164,6.328-3.164V19.835L24.723,22.7a.575.575,0,0,1-.49,0l-6.083-2.862Z" transform="translate(-7.221 -7.795)" fill="#0f9d58"/>
  <path id="Path_11" data-name="Path 11" d="M39.355,17.151H29.575a.575.575,0,0,1,0-1.151h9.779a.575.575,0,0,1,0,1.151Z" transform="translate(-12.317 -6.796)" fill="#0f9d58"/>
  <path id="Path_12" data-name="Path 12" d="M46.575,22.328A.575.575,0,0,1,46,21.753V16.575a.575.575,0,1,1,1.151,0v5.177A.575.575,0,0,1,46.575,22.328Z" transform="translate(-19.538 -6.796)" fill="#0f9d58"/>
  <path id="Path_13" data-name="Path 13" d="M29.575,17.452A.575.575,0,0,1,29,16.876v-2.3a.575.575,0,0,1,1.151,0v2.3A.575.575,0,0,1,29.575,17.452Z" transform="translate(-12.317 -5.946)" fill="#0f9d58"/>
  <path id="Path_14" data-name="Path 14" d="M44.575,27.876a.575.575,0,0,1-.478-.895l1.151-1.726a.575.575,0,1,1,.957.639L45.054,27.62A.575.575,0,0,1,44.575,27.876Z" transform="translate(-18.689 -10.618)" fill="#0f9d58"/>
  <path id="Path_15" data-name="Path 15" d="M47.726,27.876a.575.575,0,0,1-.479-.256L46.1,25.894a.575.575,0,1,1,.957-.639L48.2,26.981a.575.575,0,0,1-.478.895Z" transform="translate(-19.538 -10.618)" fill="#0f9d58"/>
  <path id="Path_16" data-name="Path 16" d="M29.575,26.876A.575.575,0,0,1,29,26.3V24.575a.575.575,0,1,1,1.151,0V26.3A.575.575,0,0,1,29.575,26.876Z" transform="translate(-12.317 -10.194)" fill="#0f9d58"/>
  <path id="Path_17" data-name="Path 17" d="M33.94,21.86H.575A.575.575,0,0,1,0,21.285V2.3A2.3,2.3,0,0,1,2.3,0H32.214a2.3,2.3,0,0,1,2.3,2.3V21.285A.575.575,0,0,1,33.94,21.86ZM1.151,20.709H33.365V2.3a1.152,1.152,0,0,0-1.151-1.151H2.3A1.152,1.152,0,0,0,1.151,2.3Z" transform="translate(0 0)" fill="#0f9d58"/>
  <path id="Path_18" data-name="Path 18" d="M32.214,41.753H2.3a2.3,2.3,0,0,1-2.3-2.3V36.575A.575.575,0,0,1,.575,36H33.94a.575.575,0,0,1,.575.575v2.876A2.3,2.3,0,0,1,32.214,41.753Zm-31.063-4.6v2.3A1.152,1.152,0,0,0,2.3,40.6H32.214a1.152,1.152,0,0,0,1.151-1.151v-2.3Z" transform="translate(0 -15.291)" fill="#0f9d58"/>
  <path id="Path_19" data-name="Path 19" d="M30.027,41.151H26.575a.575.575,0,0,1,0-1.151h3.452a.575.575,0,0,1,0,1.151Z" transform="translate(-11.043 -16.99)" fill="#0f9d58"/>
  <path id="Path_20" data-name="Path 20" d="M33.338,23.559H4.575A.575.575,0,0,1,4,22.984V4.575A.575.575,0,0,1,4.575,4H33.338a.575.575,0,0,1,.575.575V22.984A.575.575,0,0,1,33.338,23.559ZM5.151,22.408H32.763V5.151H5.151Z" transform="translate(-1.699 -1.699)" fill="#0f9d58"/>
  <path id="Path_21" data-name="Path 21" d="M30.683,55.452H15.726a1.726,1.726,0,1,1,0-3.452H30.683a1.726,1.726,0,0,1,0,3.452Zm-14.957-2.3a.575.575,0,0,0,0,1.151H30.683a.575.575,0,0,0,0-1.151Z" transform="translate(-5.946 -22.086)" fill="#0f9d58"/>
  <path id="Path_22" data-name="Path 22" d="M31.231,49.753H18.575a.575.575,0,0,1,0-1.151c1.909,0,2.876-1.355,2.876-4.027A.575.575,0,0,1,22.027,44h5.753a.575.575,0,0,1,.575.575c0,2.672.968,4.027,2.876,4.027a.575.575,0,0,1,0,1.151ZM21.377,48.6h7.052a5.5,5.5,0,0,1-1.209-3.452H22.587A5.508,5.508,0,0,1,21.377,48.6Z" transform="translate(-7.645 -18.689)" fill="#0f9d58"/>
</svg>
